# 3ds Max Wavefront OBJ Exporter v0.99 - (c)2007 guruware
# File Created: 18.12.2023 17:28:07

mtllib libr_model.mtl

#
# object Box014
#

v  203.7664 0.0000 -69.0865
v  199.3930 0.0000 -70.6782
v  199.3930 18.9239 -70.6782
v  203.7664 18.9239 -69.0865
v  221.5316 0.0000 -35.1807
v  217.7956 0.0000 -24.9159
v  197.1568 0.0000 -32.4279
v  200.8928 0.0000 -42.6926
v  208.3653 23.7404 -63.2229
v  210.1956 18.9239 -62.5310
v  208.3653 18.9239 -63.2229
v  200.8928 26.9294 -42.6926
v  206.3455 26.9294 -57.6736
v  196.0267 26.9294 -61.4293
v  190.5741 26.9294 -46.4483
v  222.2035 0.0000 -37.0192
v  215.9823 26.9294 -37.2005
v  221.4349 26.9294 -52.1815
v  222.2035 18.9370 -37.0192
v  227.7543 18.9239 -35.0106
v  227.7543 -0.0000 -35.0106
v  208.3653 0.0000 -63.2229
v  198.0465 0.0000 -66.9787
v  209.7118 0.0000 -66.9225
v  209.7118 18.9239 -66.9225
v  209.7118 23.7404 -66.9225
v  221.5316 23.7404 -35.1807
v  229.0041 23.7404 -55.7110
v  225.2312 23.7404 -33.8341
v  217.8065 26.9285 -24.9120
v  221.5061 26.9286 -23.5654
v  221.4952 23.7404 -23.5694
v  221.4952 18.9239 -23.5694
v  223.2887 18.9239 -28.4972
v  229.0041 18.9239 -55.7110
v  221.5316 18.9239 -35.1807
v  225.2312 18.9239 -33.8341
v  210.2151 -0.0000 -62.5497
v  212.2349 -0.0000 -68.0990
v  212.2349 18.9239 -68.0990
v  225.1385 0.0000 -27.8239
v  225.1385 18.9239 -27.8239
v  223.2887 0.0000 -28.4972
v  229.0041 0.0000 -55.7110
v  225.2312 0.0000 -33.8341
v  199.4054 26.9291 -70.6782
v  198.0589 26.9291 -66.9787
v  199.3930 23.7404 -70.6782
v  204.4397 18.9239 -70.9362
v  204.4397 0.0000 -70.9362
v  190.5741 0.0000 -46.4483
v  197.1568 26.9294 -32.4279
v  186.8380 26.9294 -36.1836
v  221.4952 0.0000 -23.5694
v  212.2462 26.9294 -26.9357
v  186.8380 0.0000 -36.1836
v  195.0197 0.0000 -72.2700
v  195.0196 18.9239 -72.2700
v  159.6165 0.0000 -57.7159
v  180.2553 0.0000 -50.2040
v  176.5192 0.0000 -39.9393
v  155.8804 0.0000 -47.4512
v  187.7277 23.7404 -70.7344
v  187.7277 18.9239 -70.7344
v  185.8809 18.9239 -71.3809
v  180.2553 26.9294 -50.2040
v  185.7079 26.9294 -65.1850
v  160.2836 0.0000 -59.5562
v  165.1658 26.9294 -55.6961
v  170.6185 26.9294 -70.6771
v  154.7404 -0.0000 -61.5855
v  154.7404 18.9239 -61.5855
v  160.2836 18.9370 -59.5562
v  187.7277 0.0000 -70.7344
v  189.0742 0.0000 -74.4340
v  189.0742 23.7404 -74.4340
v  189.0742 18.9239 -74.4340
v  167.0889 23.7404 -78.2463
v  159.6165 23.7404 -57.7159
v  155.9169 23.7404 -59.0625
v  152.1918 26.9286 -48.7938
v  155.8914 26.9285 -47.4472
v  155.9169 18.9239 -59.0625
v  153.9744 18.9239 -53.7256
v  167.0889 18.9239 -78.2463
v  159.6165 18.9239 -57.7159
v  187.8977 18.9239 -76.9570
v  187.8977 -0.0000 -76.9570
v  185.8779 -0.0000 -71.4077
v  152.1246 0.0000 -54.3988
v  152.1246 18.9239 -54.3988
v  153.9744 0.0000 -53.7256
v  167.0889 0.0000 -78.2463
v  155.9169 0.0000 -59.0625
v  195.6929 18.9239 -74.1198
v  195.6929 0.0000 -74.1198
v  176.5192 26.9294 -39.9393
v  152.1808 0.0000 -48.7978
v  152.1808 18.9239 -48.7978
v  161.4298 26.9294 -45.4314
v  152.1808 23.7404 -48.7978
v  178.6563 0.0000 -0.0971
v  178.6563 18.9239 -0.0971
v  174.2830 18.9239 -1.6889
v  174.2830 0.0000 -1.6889
v  214.0595 0.0000 -14.6512
v  193.4207 0.0000 -22.1631
v  185.9483 23.7404 -1.6328
v  185.9483 18.9239 -1.6328
v  187.7951 18.9239 -0.9863
v  193.4207 26.9294 -22.1631
v  183.1019 26.9294 -25.9189
v  177.6493 26.9294 -10.9379
v  187.9681 26.9294 -7.1821
v  213.3924 0.0000 -12.8109
v  208.5102 26.9294 -16.6710
v  203.0575 26.9294 -1.6900
v  218.9356 -0.0000 -10.7816
v  218.9356 18.9239 -10.7816
v  213.3924 18.9370 -12.8109
v  185.9483 0.0000 -1.6328
v  184.6017 0.0000 2.0668
v  175.6295 0.0000 -5.3885
v  184.6017 23.7404 2.0668
v  184.6017 18.9239 2.0668
v  214.0595 23.7404 -14.6512
v  206.5871 23.7404 5.8792
v  217.7591 23.7404 -13.3047
v  219.7016 18.9239 -18.6416
v  206.5871 18.9239 5.8792
v  214.0595 18.9239 -14.6512
v  217.7591 18.9239 -13.3047
v  185.7783 18.9239 4.5899
v  185.7783 -0.0000 4.5899
v  187.7981 -0.0000 -0.9595
v  221.5514 0.0000 -17.9683
v  221.5514 18.9239 -17.9683
v  219.7016 0.0000 -18.6416
v  206.5871 0.0000 5.8791
v  217.7591 0.0000 -13.3047
v  175.6390 26.9291 -5.3805
v  174.2925 26.9291 -1.6810
v  174.2830 23.7404 -1.6889
v  177.9831 18.9239 1.7527
v  177.9831 0.0000 1.7527
v  183.1019 0.0000 -25.9189
v  169.9096 0.0000 -3.2807
v  169.9096 18.9239 -3.2807
v  152.1444 0.0000 -37.1865
v  172.7832 0.0000 -29.6746
v  165.3107 23.7404 -9.1442
v  163.4804 18.9239 -9.8361
v  165.3107 18.9239 -9.1442
v  172.7832 26.9294 -29.6746
v  167.3305 26.9294 -14.6936
v  151.4725 0.0000 -35.3479
v  157.6937 26.9294 -35.1667
v  152.2411 26.9294 -20.1857
v  151.4725 18.9370 -35.3479
v  145.9217 18.9239 -37.3565
v  145.9217 -0.0000 -37.3565
v  165.3107 0.0000 -9.1442
v  163.9642 0.0000 -5.4446
v  163.9642 18.9239 -5.4446
v  163.9642 23.7404 -5.4446
v  152.1444 23.7404 -37.1865
v  144.6719 23.7404 -16.6561
v  148.4448 23.7404 -38.5330
v  148.4448 18.9239 -38.5330
v  150.3873 18.9239 -43.8699
v  144.6719 18.9239 -16.6561
v  152.1443 18.9239 -37.1865
v  163.4609 -0.0000 -9.8175
v  161.4411 -0.0000 -4.2681
v  161.4411 18.9239 -4.2681
v  148.5375 0.0000 -44.5432
v  148.5375 18.9239 -44.5432
v  150.3873 0.0000 -43.8699
v  144.6719 0.0000 -16.6561
v  148.4448 0.0000 -38.5330
v  169.2363 18.9239 -1.4309
v  169.2363 0.0000 -1.4309
# 182 vertices

vn -0.1802 -0.9045 -0.3865
vn 0.2418 -0.7071 -0.6645
vn 0.3420 0.0000 -0.9397
vn 0.0260 0.3015 -0.9531
vn 0.0000 -1.0000 -0.0000
vn 0.5393 0.7686 -0.3441
vn 0.5948 0.2984 -0.7464
vn 0.7417 0.5780 -0.3403
vn 0.0000 1.0000 -0.0000
vn 0.0838 0.9695 -0.2303
vn 0.0286 0.9965 -0.0787
vn 0.3859 -0.9047 -0.1804
vn 0.2303 0.9695 0.0838
vn 0.2402 0.9642 -0.1120
vn 0.9528 0.3021 0.0290
vn 0.7401 0.5770 -0.3456
vn 0.7397 -0.5773 -0.3458
vn -0.0000 -1.0000 -0.0000
vn -0.0000 -1.0000 0.0000
vn 0.3865 0.9045 -0.1802
vn 0.8078 0.4831 -0.3378
vn 0.6096 0.7692 -0.1914
vn 0.7991 0.4719 -0.3726
vn 0.7781 0.4827 -0.4019
vn 0.0001 1.0000 0.0000
vn 0.6113 0.7595 0.2225
vn 0.9397 -0.0018 0.3420
vn 0.9397 0.0000 0.3420
vn 0.7469 0.3015 0.5927
vn 0.9060 -0.0000 -0.4232
vn 0.7393 0.5794 -0.3431
vn 0.6649 -0.7066 0.2420
vn 0.7400 -0.5774 -0.3451
vn 0.7404 0.5772 -0.3444
vn 0.3451 -0.5774 0.7400
vn 0.3451 0.5774 0.7400
vn 0.1802 -0.9045 0.3865
vn 0.1531 -0.8942 -0.4206
vn 0.7400 -0.5773 -0.3451
vn 0.2225 0.7600 -0.6106
vn 0.0004 1.0000 0.0001
vn 0.3420 -0.0007 -0.9397
vn -0.3451 0.5774 -0.7400
vn -0.3451 -0.5774 -0.7400
vn 0.6645 -0.7071 0.2418
vn 0.0790 0.9965 0.0288
vn 0.3865 -0.9045 -0.1802
vn 0.5927 0.3015 -0.7469
vn -0.1917 0.7687 -0.6103
vn -0.3494 0.5780 -0.7374
vn 0.0242 0.2984 -0.9541
vn -0.1796 -0.9047 -0.3862
vn -0.2303 0.9695 -0.0838
vn -0.1120 0.9642 -0.2402
vn -0.3444 -0.5773 -0.7404
vn -0.3448 0.5770 -0.7404
vn -0.7486 0.3021 -0.5903
vn 0.0000 -1.0000 0.0000
vn -0.4016 0.4833 -0.7779
vn -0.1802 0.9045 -0.3865
vn -0.3726 0.4719 -0.7991
vn -0.3440 0.7692 -0.5385
vn -0.3378 0.4828 -0.8080
vn -0.6087 0.7619 -0.2215
vn -0.0001 1.0000 -0.0000
vn -0.9531 0.3015 -0.0260
vn -0.4220 -0.0000 -0.9066
vn -0.3458 0.5794 -0.7380
vn -0.3458 0.5772 -0.7397
vn -0.6649 -0.7066 -0.2420
vn -0.7400 -0.5774 0.3451
vn -0.7400 0.5774 0.3451
vn -0.3865 -0.9045 0.1802
vn -0.3450 -0.5773 -0.7400
vn 0.7400 0.5774 -0.3451
vn -0.6645 -0.7071 -0.2418
vn -0.9397 0.0000 -0.3420
vn -0.0790 0.9965 -0.0288
vn -0.9397 0.0018 -0.3420
vn -0.5927 0.3015 0.7469
vn -0.3420 0.0000 0.9397
vn -0.2418 -0.7071 0.6645
vn 0.1919 0.7686 0.6103
vn 0.3494 0.5780 0.7374
vn -0.0242 0.2984 0.9541
vn -0.0287 0.9965 0.0786
vn -0.0838 0.9695 0.2303
vn 0.1796 -0.9047 0.3862
vn 0.1120 0.9642 0.2402
vn 0.3444 -0.5773 0.7404
vn 0.3448 0.5770 0.7404
vn 0.7486 0.3021 0.5903
vn 0.4017 0.4831 0.7780
vn 0.1802 0.9045 0.3865
vn 0.3440 0.7692 0.5385
vn 0.3726 0.4719 0.7991
vn 0.3377 0.4827 0.8081
vn 0.9531 0.3015 0.0260
vn 0.4220 -0.0000 0.9066
vn 0.3458 0.5794 0.7380
vn 0.3458 0.5772 0.7397
vn -0.1531 -0.8942 0.4206
vn 0.3450 -0.5773 0.7400
vn 0.0004 1.0000 0.0002
vn -0.2221 0.7600 0.6108
vn -0.3420 -0.0007 0.9397
vn -0.0260 0.3015 0.9531
vn -0.5391 0.7687 0.3443
vn -0.5948 0.2984 0.7464
vn -0.7417 0.5780 0.3403
vn -0.3859 -0.9047 0.1804
vn -0.2402 0.9642 0.1120
vn -0.9528 0.3021 -0.0290
vn -0.7401 0.5770 0.3456
vn -0.7397 -0.5773 0.3458
vn -0.3865 0.9045 0.1802
vn -0.8077 0.4833 0.3378
vn -0.6096 0.7692 0.1914
vn -0.7991 0.4719 0.3726
vn -0.7781 0.4828 0.4018
vn -0.7469 0.3015 -0.5927
vn -0.9060 -0.0000 0.4232
vn -0.7393 0.5794 0.3431
vn -0.7404 0.5772 0.3444
vn -0.7400 -0.5773 0.3451
# 125 vertex normals

vt 0.4444 0.0000 0.0000
vt 0.5000 0.0000 0.0000
vt 0.5000 0.5000 0.0000
vt 0.4444 0.5000 0.0000
vt 0.0000 0.6667 0.0000
vt 0.0000 0.5000 0.0000
vt 0.3333 0.5000 0.0000
vt 0.3333 0.8333 0.0000
vt 0.1667 1.0000 0.0000
vt 0.1667 0.5000 0.0000
vt 0.6667 0.6667 0.0000
vt 0.6667 1.0000 0.0000
vt 0.5000 1.0000 0.0000
vt 0.5000 0.6667 0.0000
vt 0.0000 0.8333 0.0000
vt 1.0000 0.6667 0.0000
vt 1.0000 1.0000 0.0000
vt 0.6667 0.0000 0.0000
vt 0.6667 0.5000 0.0000
vt 0.3333 0.0000 0.0000
vt 0.3333 1.0000 0.0000
vt 0.8333 1.0000 0.0000
vt 0.5556 0.5000 0.0000
vt 1.0000 0.5000 0.0000
vt 0.8333 0.5000 0.0000
vt 0.5556 0.0000 0.0000
vt 0.0000 1.0000 0.0000
vt 0.3333 0.6667 0.0000
vt 1.0000 0.8333 0.0000
# 29 texture coords

o Box014
g Box014
usemtl wire_115115115
s 32
f 1/1/1 2/2/2 3/3/3 4/4/4 
s 2
f 5/5/5 6/6/5 7/7/5 8/8/5 
s 32
f 9/9/6 10/10/7 11/7/8 
s 1
f 12/11/9 13/12/10 14/13/11 15/14/9 
s 2
f 8/8/5 16/15/12 5/5/5 
s 1
f 17/16/13 18/17/14 13/12/10 12/11/9 
s 128
f 16/18/12 19/19/15 20/19/16 21/18/17 
s off
f 22/20/18 23/2/5 2/2/2 1/1/1 24/20/19 
s 64
f 9/9/6 11/7/8 25/7/20 26/21/21 
s 2
f 27/16/22 28/17/23 18/17/14 17/16/13 
f 28/17/23 9/22/6 13/12/10 18/17/14 
s 8
f 29/12/24 27/12/22 30/13/25 31/13/26 
s 16
f 29/12/24 32/13/27 33/3/28 34/23/29 
f 35/24/30 28/17/23 27/12/22 19/25/15 
s 128
f 36/19/31 27/12/22 29/12/24 37/19/20 
s 64
f 10/7/7 38/20/32 39/20/33 40/7/34 
s 16
f 41/26/35 21/18/17 20/19/16 42/23/36 
s 1
f 36/19/31 37/19/20 20/19/16 19/19/15 
f 37/19/20 34/23/29 42/23/36 20/19/16 
s 512
f 34/23/29 43/26/37 41/26/35 42/23/36 
s 16
f 27/12/22 36/19/31 19/25/15 
s 2
f 8/8/5 22/21/18 38/9/38 
s 16
f 35/6/30 19/25/15 16/15/12 44/27/39 
s off
f 43/26/37 45/18/19 21/18/17 41/26/35 
f 16/15/12 21/18/17 45/18/19 5/18/5 
s 4
f 9/9/6 26/21/21 46/13/40 47/13/41 
s off
f 26/21/21 48/13/42 46/13/40 
s 32
f 49/4/43 40/7/34 39/20/33 50/1/44 
s 256
f 1/1/1 4/4/4 49/4/43 50/1/44 
s 1
f 4/4/4 25/7/20 40/7/34 49/4/43 
f 25/7/20 11/7/8 10/7/7 40/7/34 
s 2
f 38/9/38 44/27/39 16/15/12 8/8/5 
s 32
f 9/9/6 28/27/23 35/6/30 10/10/7 
f 10/10/7 35/6/30 44/27/39 38/9/38 
s off
f 24/20/19 1/1/1 50/1/44 39/20/33 
f 39/20/33 38/20/32 22/21/18 24/20/19 
s 2
f 23/13/5 22/21/18 8/8/5 51/14/5 
s 32
f 26/21/21 25/7/20 4/4/4 
s 1
f 52/19/9 12/11/9 15/14/9 53/3/9 
s 16
f 54/2/45 43/26/37 34/23/29 33/3/28 
s 1
f 55/24/46 17/16/13 12/11/9 52/19/9 
s off
f 6/2/5 5/18/5 45/18/19 43/26/37 54/2/45 
f 32/13/27 29/12/24 31/13/26 
s 2
f 27/16/22 17/16/13 55/24/46 
f 56/3/5 51/14/5 8/8/5 7/7/5 
s 32
f 57/1/47 58/4/48 3/3/3 2/2/2 
s 2
f 59/5/5 60/28/18 61/7/5 62/6/5 
s 32
f 63/21/49 64/7/50 65/10/51 
s 1
f 66/11/9 15/14/9 14/13/11 67/12/10 
s 2
f 60/28/18 59/5/5 68/15/52 
s 1
f 69/16/53 66/11/9 67/12/10 70/17/54 
s 128
f 68/18/52 71/18/55 72/19/56 73/19/57 
s off
f 74/20/58 75/20/58 57/1/47 2/2/2 23/2/5 
s 64
f 63/21/49 76/21/59 77/7/60 64/7/50 
s 2
f 69/16/53 70/17/54 78/17/61 79/29/62 
f 78/17/61 70/17/54 67/12/10 63/12/49 
s 4
f 80/12/63 81/13/64 82/13/65 79/22/62 
s 16
f 83/19/60 84/23/66 80/12/63 
f 85/24/67 73/25/57 79/22/62 78/17/61 
s 128
f 86/19/68 83/19/60 80/12/63 79/22/62 
s 64
f 65/7/51 87/7/69 88/20/44 89/20/70 
s 16
f 90/26/71 91/23/72 72/19/56 71/18/55 
s 1
f 86/19/68 73/19/57 72/19/56 83/19/60 
f 83/19/60 72/19/56 91/23/72 84/23/66 
s 512
f 84/23/66 91/23/72 90/26/71 92/26/73 
s 16
f 79/22/62 73/25/57 86/19/68 
s 2
f 60/28/18 89/9/38 74/21/58 
s 16
f 85/6/67 93/27/74 68/15/52 73/25/57 
s off
f 92/26/73 90/26/71 71/18/55 94/18/58 
f 68/15/52 59/18/5 94/18/58 71/18/55 
s 8
f 63/21/49 47/13/41 46/13/40 76/21/59 
s off
f 76/21/59 46/13/40 48/13/42 
s 32
f 95/4/75 96/1/33 88/20/44 87/7/69 
s 256
f 57/1/47 96/1/33 95/4/75 58/4/48 
s 1
f 58/4/48 95/4/75 87/7/69 77/7/60 
f 77/7/60 87/7/69 65/7/51 64/7/50 
s 2
f 89/9/38 60/28/18 68/15/52 93/27/74 
s 32
f 63/21/49 65/10/51 85/6/67 78/27/61 
f 65/10/51 89/9/38 93/27/74 85/6/67 
s off
f 75/20/58 88/20/44 96/1/33 57/1/47 
f 88/20/44 75/20/58 74/21/58 89/20/70 
s 2
f 23/13/5 51/14/5 60/28/18 74/21/58 
s 32
f 48/13/42 3/3/3 58/4/48 76/21/59 
s 1
f 97/19/9 53/3/9 15/14/9 66/11/9 
s 16
f 98/2/76 99/3/77 84/23/66 92/26/73 
s 1
f 100/24/78 97/19/9 66/11/9 69/16/53 
s off
f 62/2/5 98/2/76 92/26/73 94/18/58 59/18/5 
f 101/13/79 81/13/64 80/12/63 
s 2
f 100/24/78 69/16/53 79/29/62 
f 56/3/5 61/7/5 60/28/18 51/14/5 
f 67/12/10 14/13/11 63/12/49 
f 9/22/6 14/13/11 13/12/10 
s 8
f 55/24/46 30/24/25 27/16/22 
s 4
f 9/22/6 47/13/41 14/13/11 
s 8
f 14/13/11 47/13/41 63/12/49 
s 4
f 79/29/62 82/24/65 100/24/78 
s 16
f 34/23/29 37/19/20 29/12/24 
s 32
f 4/4/4 3/3/3 48/13/42 26/21/21 
f 58/4/48 77/7/60 76/21/59 
s 16
f 84/23/66 99/3/77 101/13/79 80/12/63 
s 32
f 102/1/73 103/4/80 104/3/81 105/2/82 
s 2
f 106/5/19 107/8/58 7/7/5 6/6/5 
s 32
f 108/9/83 109/7/84 110/10/85 
s 1
f 111/11/9 112/14/9 113/13/86 114/12/87 
s 2
f 107/8/58 106/5/19 115/15/88 
s 1
f 116/16/13 111/11/9 114/12/87 117/17/89 
s 128
f 115/18/88 118/18/90 119/19/91 120/19/92 
s off
f 121/20/18 122/20/18 102/1/73 105/2/82 123/2/5 
s 64
f 108/9/83 124/21/93 125/7/94 109/7/84 
s 2
f 126/16/95 116/16/13 117/17/89 127/17/96 
f 127/17/96 117/17/89 114/12/87 108/22/83 
s 4
f 128/12/97 31/13/26 30/13/25 126/12/95 
s 16
f 128/12/97 129/23/98 33/3/28 32/13/27 
f 130/24/99 120/25/92 126/12/95 127/17/96 
s 128
f 131/19/100 132/19/94 128/12/97 126/12/95 
s 64
f 110/7/85 133/7/101 134/20/35 135/20/32 
s 16
f 136/26/33 137/23/75 119/19/91 118/18/90 
s 1
f 131/19/100 120/19/92 119/19/91 132/19/94 
f 132/19/94 119/19/91 137/23/75 129/23/98 
s 512
f 129/23/98 137/23/75 136/26/33 138/26/47 
s 16
f 126/12/95 120/25/92 131/19/100 
s 2
f 107/8/58 135/9/102 121/21/18 
s 16
f 130/6/99 139/27/103 115/15/88 120/25/92 
s off
f 138/26/47 136/26/33 118/18/90 140/18/18 
f 115/15/88 106/18/19 140/18/18 118/18/90 
s 8
f 108/9/83 141/13/104 142/13/105 124/21/93 
s off
f 124/21/93 142/13/105 143/13/106 
s 32
f 144/4/72 145/1/71 134/20/35 133/7/101 
s 256
f 102/1/73 145/1/71 144/4/72 103/4/80 
s 1
f 103/4/80 144/4/72 133/7/101 125/7/94 
f 125/7/94 133/7/101 110/7/85 109/7/84 
s 2
f 135/9/102 107/8/58 115/15/88 139/27/103 
s 32
f 108/9/83 110/10/85 130/6/99 127/27/96 
f 110/10/85 135/9/102 139/27/103 130/6/99 
s off
f 122/20/18 134/20/35 145/1/71 102/1/73 
f 134/20/35 122/20/18 121/21/18 135/20/32 
s 2
f 123/13/5 146/14/5 107/8/58 121/21/18 
s 32
f 124/21/93 103/4/80 125/7/94 
s 1
f 52/19/9 53/3/9 112/14/9 111/11/9 
s 16
f 54/2/45 33/3/28 129/23/98 138/26/47 
s 1
f 55/24/46 52/19/9 111/11/9 116/16/13 
s off
f 6/2/5 54/2/45 138/26/47 140/18/18 106/18/19 
f 32/13/27 31/13/26 128/12/97 
s 2
f 126/16/95 55/24/46 116/16/13 
f 56/3/5 7/7/5 107/8/58 146/14/5 
s 32
f 147/1/37 105/2/82 104/3/81 148/4/107 
s 2
f 149/5/19 62/6/5 61/7/5 150/28/19 
s 32
f 151/21/108 152/10/109 153/7/110 
s 1
f 154/11/9 155/12/87 113/13/86 112/14/9 
s 2
f 150/28/19 156/15/111 149/5/19 
s 1
f 157/16/53 158/17/112 155/12/87 154/11/9 
s 128
f 156/18/111 159/19/113 160/19/114 161/18/115 
s off
f 162/20/58 123/2/5 105/2/82 147/1/37 163/20/5 
s 64
f 151/21/108 153/7/110 164/7/116 165/21/117 
s 2
f 157/16/53 166/29/118 167/17/119 158/17/112 
f 167/17/119 151/12/108 155/12/87 158/17/112 
s 8
f 168/12/120 166/22/118 82/13/65 81/13/64 
s 16
f 169/19/116 168/12/120 170/23/121 
f 171/24/122 167/17/119 166/22/118 159/25/113 
s 128
f 172/19/123 166/22/118 168/12/120 169/19/116 
s 64
f 152/7/109 173/20/70 174/20/71 175/7/124 
s 16
f 176/26/44 161/18/115 160/19/114 177/23/43 
s 1
f 172/19/123 169/19/116 160/19/114 159/19/113 
f 169/19/116 170/23/121 177/23/43 160/19/114 
s 512
f 170/23/121 178/26/1 176/26/44 177/23/43 
s 16
f 166/22/118 172/19/123 159/25/113 
s 2
f 150/28/19 162/21/58 173/9/102 
s 16
f 171/6/122 159/25/113 156/15/111 179/27/125 
s off
f 178/26/1 180/18/5 161/18/115 176/26/44 
f 156/15/111 161/18/115 180/18/5 149/18/19 
s 4
f 151/21/108 165/21/117 142/13/105 141/13/104 
s off
f 165/21/117 143/13/106 142/13/105 
s 32
f 181/4/36 175/7/124 174/20/71 182/1/35 
s 256
f 147/1/37 148/4/107 181/4/36 182/1/35 
s 1
f 148/4/107 164/7/116 175/7/124 181/4/36 
f 164/7/116 153/7/110 152/7/109 175/7/124 
s 2
f 173/9/102 179/27/125 156/15/111 150/28/19 
s 32
f 151/21/108 167/27/119 171/6/122 152/10/109 
f 152/10/109 171/6/122 179/27/125 173/9/102 
s off
f 163/20/5 147/1/37 182/1/35 174/20/71 
f 174/20/71 173/20/70 162/21/58 163/20/5 
s 2
f 123/13/5 162/21/58 150/28/19 146/14/5 
s 32
f 143/13/106 165/21/117 148/4/107 104/3/81 
s 1
f 97/19/9 154/11/9 112/14/9 53/3/9 
s 16
f 98/2/76 178/26/1 170/23/121 99/3/77 
s 1
f 100/24/78 157/16/53 154/11/9 97/19/9 
s off
f 62/2/5 149/18/19 180/18/5 178/26/1 98/2/76 
f 101/13/79 168/12/120 81/13/64 
s 2
f 100/24/78 166/29/118 157/16/53 
f 56/3/5 146/14/5 150/28/19 61/7/5 
f 155/12/87 151/12/108 113/13/86 
f 108/22/83 114/12/87 113/13/86 
s 4
f 55/24/46 126/16/95 30/24/25 
s 8
f 108/22/83 113/13/86 141/13/104 
s 4
f 113/13/86 151/12/108 141/13/104 
s 8
f 166/29/118 100/24/78 82/24/65 
s 16
f 129/23/98 128/12/97 132/19/94 
s 32
f 103/4/80 124/21/93 143/13/106 104/3/81 
f 148/4/107 165/21/117 164/7/116 
s 16
f 170/23/121 168/12/120 101/13/79 99/3/77 
# 152 polygons - 48 triangles

