# 3ds Max Wavefront OBJ Exporter v0.99 - (c)2007 guruware
# File Created: 20.12.2023 14:15:54

mtllib univ_mainhall.mtl

#
# object univ_mainhall
#

v  54.7683 0.0000 -108.5674
v  37.9134 0.0000 -108.5674
v  37.9134 17.5989 -108.5674
v  54.7683 17.5989 -108.5674
v  61.3625 25.3728 -97.0573
v  37.9134 25.3728 -97.0573
v  54.7683 0.0000 -85.5473
v  37.9134 0.0000 -85.5473
v  37.9134 17.5989 -85.5473
v  54.7683 17.5989 -85.5473
v  21.0584 0.0000 -108.5674
v  21.0584 17.5989 -108.5674
v  14.4643 25.3728 -97.0573
v  21.0584 0.0000 -85.5473
v  21.0584 17.5989 -85.5473
v  43.7588 18.4583 -86.6805
v  46.1210 18.4583 -86.6805
v  46.1210 21.2142 -86.6805
v  44.9399 22.5568 -86.6805
v  43.7588 21.2142 -86.6805
v  43.7588 18.4583 -90.9452
v  43.7588 21.2142 -90.9452
v  44.9399 22.5568 -93.0522
v  46.1210 21.2142 -90.9452
v  46.1210 18.4583 -90.9452
v  49.1132 18.4583 -86.6805
v  51.4754 18.4583 -86.6805
v  51.4754 21.2142 -86.6805
v  50.2943 22.5568 -86.6805
v  49.1132 21.2142 -86.6805
v  49.1132 18.4583 -90.9452
v  49.1132 21.2142 -90.9452
v  50.2943 22.5568 -93.0522
v  51.4754 21.2142 -90.9452
v  51.4754 18.4583 -90.9452
v  54.7685 0.0000 -75.1842
v  61.3901 0.0000 -75.1842
v  61.3901 25.3962 -75.1842
v  54.7685 17.5989 -75.1842
v  54.7685 0.0000 -83.0582
v  61.3901 0.0000 -83.0582
v  61.3901 0.0000 -76.1311
v  54.7685 0.0000 -76.1311
v  54.3748 17.1364 -83.0582
v  54.7685 16.7190 -83.0582
v  54.7685 16.7190 -76.1311
v  54.3748 17.1364 -76.1311
v  61.3901 25.3962 -83.0582
v  54.7685 17.5989 -83.0582
v  54.7685 17.5989 -76.1311
v  61.3901 25.3962 -76.1311
v  54.7716 20.5860 -83.0582
v  54.7712 20.1379 -83.0582
v  54.7685 19.9539 -76.1311
v  54.7685 19.9539 -75.1842
v  55.4307 19.9534 -75.1842
v  55.4307 19.9534 -76.1311
v  54.7685 18.3863 -76.1311
v  55.4307 19.1660 -76.1311
v  61.3901 26.1836 -76.1311
v  54.7685 18.3863 -75.1842
v  61.3901 26.1836 -75.1842
v  55.4307 19.1660 -75.1842
v  61.3901 26.9710 -75.1842
v  61.3901 26.9710 -76.1311
v  54.5335 20.4000 -83.0582
v  68.0117 0.0000 -75.1842
v  68.0117 17.5989 -75.1842
v  68.0117 0.0000 -83.0582
v  68.0117 0.0000 -76.1311
v  68.4054 17.1364 -83.0582
v  68.4054 17.1364 -76.1311
v  68.0117 16.7190 -76.1311
v  68.0117 16.7190 -83.0582
v  68.0117 17.5989 -76.1311
v  68.0117 17.5989 -83.0582
v  68.0086 20.5860 -83.0582
v  68.0086 20.5860 -111.0565
v  61.3901 25.3962 -111.0565
v  68.0117 0.0000 -111.0565
v  68.0117 16.7190 -111.0565
v  68.0117 17.5989 -111.0565
v  68.0091 20.1379 -83.0582
v  68.0117 19.9539 -76.1311
v  67.3495 19.9534 -76.1311
v  67.3495 19.9534 -75.1842
v  68.0117 19.9539 -75.1842
v  67.3495 19.1660 -76.1311
v  68.0117 18.3863 -76.1311
v  68.0117 18.3863 -75.1842
v  67.3495 19.1660 -75.1842
v  68.2467 20.4000 -83.0582
v  54.7685 0.0000 -111.0565
v  61.3901 0.0000 -111.0565
v  54.7712 20.1379 -111.0565
v  54.7685 17.5989 -111.0565
v  68.0091 20.1379 -111.0565
v  54.7685 0.0000 -118.9305
v  54.7685 17.5989 -118.9305
v  61.3901 25.3962 -118.9305
v  61.3901 0.0000 -118.9305
v  54.7685 0.0000 -117.9835
v  61.3901 0.0000 -117.9835
v  54.3748 17.1364 -111.0565
v  54.3748 17.1364 -117.9835
v  54.7685 16.7190 -117.9835
v  54.7685 16.7190 -111.0565
v  61.3901 25.3962 -117.9835
v  54.7685 17.5989 -117.9835
v  54.7716 20.5860 -111.0565
v  54.5335 20.4000 -111.0565
v  54.7685 19.9539 -117.9835
v  55.4307 19.9534 -117.9835
v  55.4307 19.9534 -118.9305
v  54.7685 19.9539 -118.9305
v  61.3901 26.1836 -117.9835
v  55.4307 19.1660 -117.9835
v  54.7685 18.3863 -117.9835
v  54.7685 18.3863 -118.9305
v  55.4307 19.1660 -118.9305
v  61.3901 26.1836 -118.9305
v  61.3901 26.9710 -117.9835
v  61.3901 26.9710 -118.9305
v  68.0117 0.0000 -118.9305
v  68.0117 17.5989 -118.9305
v  68.0117 0.0000 -117.9835
v  68.4054 17.1364 -111.0565
v  68.0117 16.7190 -117.9835
v  68.4054 17.1364 -117.9835
v  68.0117 17.5989 -117.9835
v  68.2467 20.4000 -111.0565
v  68.0117 19.9539 -117.9835
v  68.0117 19.9539 -118.9305
v  67.3495 19.9534 -118.9305
v  67.3495 19.9534 -117.9835
v  68.0117 18.3863 -117.9835
v  67.3495 19.1660 -117.9835
v  68.0117 18.3863 -118.9305
v  67.3495 19.1660 -118.9305
v  34.7638 0.0000 -78.2020
v  34.7638 0.0000 -85.5358
v  41.0630 0.0000 -85.5358
v  41.0630 0.0000 -78.2020
v  34.7638 21.3868 -84.6262
v  35.2362 21.3868 -84.6262
v  35.2362 21.3868 -85.5358
v  34.7638 21.3868 -85.5358
v  41.0630 2.4795 -84.6262
v  34.7638 2.4795 -84.6262
v  41.0630 2.4795 -85.5358
v  41.0630 0.0000 -95.8113
v  34.7638 0.0000 -95.8113
v  34.7638 2.4795 -95.8113
v  41.0630 2.4795 -95.8113
v  34.7638 2.4795 -85.5358
v  34.7638 17.6548 -84.6262
v  41.0630 17.6548 -84.6262
v  41.0630 20.3331 -84.6262
v  37.9134 23.4209 -84.6262
v  34.7638 20.3331 -84.6262
v  41.0630 17.6548 -85.5358
v  41.0630 20.0653 -85.5358
v  41.0630 20.3331 -85.5358
v  41.0630 17.6548 -95.8113
v  34.7638 17.6548 -95.8113
v  34.7638 20.0653 -95.8113
v  41.0630 20.0653 -95.8113
v  34.7638 17.6548 -85.5358
v  34.7638 20.0653 -85.5358
v  37.9134 24.0114 -84.6262
v  40.5906 21.3868 -84.6262
v  40.5906 21.3868 -85.5358
v  37.9134 24.0114 -85.5358
v  37.9134 23.4209 -85.5358
v  37.9134 23.4209 -95.8113
v  34.7638 20.3331 -95.8113
v  34.7638 20.3331 -85.5358
v  41.0630 20.3331 -95.8113
v  41.0630 21.3868 -84.6262
v  41.0630 21.3868 -85.5358
v  34.6457 20.2181 -85.5358
v  34.6457 20.2181 -95.8113
v  41.1811 20.2181 -95.8113
v  41.1811 20.2181 -85.5358
v  41.0630 8.1828 -84.6262
v  34.7638 8.1828 -84.6262
v  41.0630 8.1828 -85.5358
v  34.7638 8.1828 -95.8113
v  41.0630 8.1828 -95.8113
v  34.7638 8.1828 -85.5358
v  29.3263 18.4583 -86.6805
v  31.6885 18.4583 -86.6805
v  31.6885 21.2142 -86.6805
v  30.5074 22.5568 -86.6805
v  29.3263 21.2142 -86.6805
v  29.3263 18.4583 -90.9452
v  29.3263 21.2142 -90.9452
v  30.5074 22.5568 -93.0522
v  31.6885 21.2142 -90.9452
v  31.6885 18.4583 -90.9452
v  23.9719 18.4583 -86.6805
v  26.3341 18.4583 -86.6805
v  26.3341 21.2142 -86.6805
v  25.1530 22.5568 -86.6805
v  23.9719 21.2142 -86.6805
v  23.9719 18.4583 -90.9452
v  23.9719 21.2142 -90.9452
v  25.1530 22.5568 -93.0522
v  26.3341 21.2142 -90.9452
v  26.3341 18.4583 -90.9452
v  7.8067 0.0000 -75.1842
v  14.4283 0.0000 -75.1842
v  14.4283 25.3962 -75.1842
v  7.8067 17.5989 -75.1842
v  7.8067 0.0000 -83.0582
v  14.4283 0.0000 -83.0582
v  14.4283 0.0000 -76.1311
v  7.8067 0.0000 -76.1311
v  7.4130 17.1364 -83.0582
v  7.8067 16.7190 -83.0582
v  7.8067 16.7190 -76.1311
v  7.4130 17.1364 -76.1311
v  14.4283 25.3962 -83.0582
v  7.8067 17.5989 -83.0582
v  7.8067 17.5989 -76.1311
v  14.4283 25.3962 -76.1311
v  7.8098 20.5860 -83.0582
v  7.8093 20.1379 -83.0582
v  7.8067 19.9539 -76.1311
v  7.8067 19.9539 -75.1842
v  8.4689 19.9534 -75.1842
v  8.4689 19.9534 -76.1311
v  7.8067 18.3863 -76.1311
v  8.4689 19.1660 -76.1311
v  14.4283 26.1836 -76.1311
v  7.8067 18.3863 -75.1842
v  14.4283 26.1836 -75.1842
v  8.4689 19.1660 -75.1842
v  14.4283 26.9710 -75.1842
v  14.4283 26.9710 -76.1311
v  7.5716 20.4000 -83.0582
v  21.0499 0.0000 -75.1842
v  21.0499 17.5989 -75.1842
v  21.0499 0.0000 -83.0582
v  21.0499 0.0000 -76.1311
v  21.4436 17.1364 -83.0582
v  21.4436 17.1364 -76.1311
v  21.0499 16.7190 -76.1311
v  21.0499 16.7190 -83.0582
v  21.0499 17.5989 -76.1311
v  21.0499 17.5989 -83.0582
v  21.0468 20.5860 -83.0582
v  21.0468 20.5860 -111.0565
v  14.4283 25.3962 -111.0565
v  21.0499 0.0000 -111.0565
v  21.0499 16.7190 -111.0565
v  21.0499 17.5989 -111.0565
v  21.0472 20.1379 -83.0582
v  21.0499 19.9539 -76.1311
v  20.3877 19.9534 -76.1311
v  20.3877 19.9534 -75.1842
v  21.0499 19.9539 -75.1842
v  20.3877 19.1660 -76.1311
v  21.0499 18.3863 -76.1311
v  21.0499 18.3863 -75.1842
v  20.3877 19.1660 -75.1842
v  21.2849 20.4000 -83.0582
v  7.8067 0.0000 -111.0565
v  14.4283 0.0000 -111.0565
v  7.8093 20.1379 -111.0565
v  7.8067 17.5989 -111.0565
v  21.0472 20.1379 -111.0565
v  7.8067 0.0000 -118.9305
v  7.8067 17.5989 -118.9305
v  14.4283 25.3962 -118.9305
v  14.4283 0.0000 -118.9305
v  7.8067 0.0000 -117.9835
v  14.4283 0.0000 -117.9835
v  7.4130 17.1364 -111.0565
v  7.4130 17.1364 -117.9835
v  7.8067 16.7190 -117.9835
v  7.8067 16.7190 -111.0565
v  14.4283 25.3962 -117.9835
v  7.8067 17.5989 -117.9835
v  7.8098 20.5860 -111.0565
v  7.5716 20.4000 -111.0565
v  7.8067 19.9539 -117.9835
v  8.4689 19.9534 -117.9835
v  8.4689 19.9534 -118.9305
v  7.8067 19.9539 -118.9305
v  14.4283 26.1836 -117.9835
v  8.4689 19.1660 -117.9835
v  7.8067 18.3863 -117.9835
v  7.8067 18.3863 -118.9305
v  8.4689 19.1660 -118.9305
v  14.4283 26.1836 -118.9305
v  14.4283 26.9710 -117.9835
v  14.4283 26.9710 -118.9305
v  21.0499 0.0000 -118.9305
v  21.0499 17.5989 -118.9305
v  21.0499 0.0000 -117.9835
v  21.4436 17.1364 -111.0565
v  21.0499 16.7190 -117.9835
v  21.4436 17.1364 -117.9835
v  21.0499 17.5989 -117.9835
v  21.2849 20.4000 -111.0565
v  21.0499 19.9539 -117.9835
v  21.0499 19.9539 -118.9305
v  20.3877 19.9534 -118.9305
v  20.3877 19.9534 -117.9835
v  21.0499 18.3863 -117.9835
v  20.3877 19.1660 -117.9835
v  21.0499 18.3863 -118.9305
v  20.3877 19.1660 -118.9305
# 314 vertices

vn 0.0000 -0.7071 -0.7071
vn 0.0000 0.5072 -0.8618
vn 0.0000 0.5621 -0.8271
vn 0.0000 1.0000 -0.0000
vn 0.0000 -0.7071 0.7071
vn 0.0000 0.5072 0.8618
vn 0.0000 0.5621 0.8271
vn -0.5774 -0.5774 0.5774
vn 0.5774 -0.5774 0.5774
vn 0.7223 0.2725 0.6356
vn 0.0001 0.8210 0.5710
vn -0.7223 0.2725 0.6357
vn -0.5774 -0.5774 -0.5774
vn -0.9429 0.2975 -0.1500
vn 0.0000 0.3120 -0.9501
vn 0.9429 0.2975 -0.1500
vn 0.5774 -0.5774 -0.5774
vn 0.0000 0.8210 0.5709
vn -0.7223 0.2725 0.6356
vn 0.0000 0.0000 1.0000
vn -0.7071 0.0000 0.7071
vn -0.7071 -0.7071 -0.0000
vn 0.0000 -1.0000 -0.0000
vn -0.8120 -0.0207 -0.5833
vn -0.9756 -0.1796 -0.1260
vn -0.9756 -0.1796 0.1260
vn -0.8120 -0.0207 0.5833
vn 0.0000 0.9946 0.1036
vn -0.9385 0.3453 -0.0004
vn -0.9386 0.3451 0.0002
vn 0.0000 0.3849 -0.9230
vn -0.4278 0.5678 0.7032
vn -0.5624 -0.2167 0.7979
vn -0.5772 0.5775 -0.5773
vn -0.5772 0.5775 0.5773
vn -0.2431 0.5259 0.8150
vn -0.2431 0.5259 -0.8150
vn -0.7071 0.0000 -0.7071
vn 0.0000 0.0000 -1.0000
vn 0.0000 0.8221 0.5694
vn 0.0000 0.8221 -0.5694
vn -0.8161 0.0701 0.5736
vn 0.7071 0.0000 0.7071
vn 0.7071 -0.7071 -0.0000
vn 0.8120 -0.0207 -0.5833
vn 0.8120 -0.0207 0.5833
vn 0.9756 -0.1796 0.1260
vn 0.9756 -0.1796 -0.1260
vn 0.9386 0.3451 0.0002
vn 0.9385 0.3453 -0.0004
vn 0.4278 0.5678 0.7032
vn 0.4278 0.5678 -0.7032
vn 0.0000 0.9946 -0.1036
vn 0.9385 0.3453 0.0004
vn 0.5624 -0.2167 0.7979
vn 0.5772 0.5775 -0.5773
vn 0.2431 0.5259 -0.8150
vn 0.2431 0.5259 0.8150
vn 0.5772 0.5775 0.5773
vn 0.7071 0.0000 -0.7071
vn 0.8161 0.0701 0.5736
vn -0.5624 -0.2167 -0.7979
vn -0.9385 0.3453 0.0004
vn 0.5624 -0.2167 -0.7979
vn 0.0000 0.3849 0.9230
vn -0.9386 0.3451 -0.0002
vn -0.4278 0.5678 -0.7032
vn -0.8161 0.0701 -0.5736
vn 0.9386 0.3451 -0.0002
vn 0.8161 0.0701 -0.5736
vn -0.5386 -0.1295 0.8326
vn 0.5386 -0.1295 0.8326
vn -0.5773 0.5774 0.5774
vn -0.2933 0.7181 -0.6311
vn -0.2933 0.7181 0.6311
vn -0.5773 0.5774 -0.5774
vn 0.8667 0.2945 0.4025
vn -0.8667 0.2945 0.4025
vn 1.0000 0.0000 -0.0000
vn -1.0000 0.0000 -0.0000
vn 0.9814 -0.1583 0.1084
vn 0.9216 0.3880 0.0006
vn -0.5832 -0.1991 -0.7876
vn 0.5832 -0.1991 -0.7876
vn -0.9814 -0.1583 0.1084
vn 0.0000 0.8158 0.5784
vn 0.2933 0.7181 -0.6311
vn 0.2933 0.7181 0.6311
vn 0.0000 0.8158 -0.5784
vn 0.0000 0.4313 -0.9022
vn -0.4939 0.5055 -0.7075
vn -0.9216 0.3880 0.0006
vn 0.4939 0.5055 -0.7075
vn 0.5773 0.5774 0.5774
vn 0.5773 0.5774 -0.5774
vn -0.8100 0.0570 0.5836
vn -0.8100 0.0570 -0.5836
vn 0.8100 0.0570 -0.5836
vn 0.8100 0.0570 0.5836
vn 0.7223 0.2725 0.6357
vn -0.0001 0.8210 0.5710
vn -0.0000 0.3120 -0.9501
# 102 vertex normals

vt 0.2200 0.0000 0.0000
vt 0.5000 0.0000 0.0000
vt 0.5000 1.0000 0.0000
vt 0.2200 1.0000 0.0000
vt 0.7800 0.5000 0.0000
vt 0.7800 1.0000 0.0000
vt 0.4542 0.5000 0.0000
vt 0.7800 0.0000 0.0000
vt 1.0000 0.0000 0.0000
vt 0.0000 0.0000 0.0000
vt 0.0000 1.0000 0.0000
vt 1.0000 1.0000 0.0000
vt 0.8900 0.0000 0.0000
vt 0.8900 1.0000 0.0000
vt 0.7800 0.9500 0.0000
vt 0.8735 0.1500 0.0000
vt 0.7910 1.0000 0.0000
vt 0.7520 0.9500 0.0000
vt 0.1100 0.0000 0.0000
vt 1.0000 0.5000 0.0000
vt 0.0000 0.5000 0.0000
vt 0.0750 0.0000 0.0000
vt 0.0750 0.5000 0.0000
vt 1.0000 0.9000 0.0000
vt 0.0000 0.9000 0.0000
vt 0.5000 0.9000 0.0000
vt 0.9250 0.0000 0.0000
vt 0.9250 0.5000 0.0000
vt 0.5000 0.5000 0.0000
vt 1.0000 0.9100 0.0000
vt 0.0000 0.9100 0.0000
vt 0.5000 0.9100 0.0000
# 32 texture coords

o univ_mainhall
g univ_mainhall
usemtl wire_115115115
s 32
f 1/1/1 2/2/1 3/3/2 4/4/3 
s 4
f 5/5/4 4/6/3 3/3/2 6/7/4 
s 2
f 2/3/1 1/4/1 7/1/5 8/2/5 
s 4
f 9/2/6 10/8/7 5/5/4 6/7/4 
s 8
f 8/2/5 7/8/5 10/6/7 9/3/6 
s 32
f 11/1/1 12/4/3 3/3/2 2/2/1 
s 4
f 13/5/4 6/7/4 3/3/2 12/6/3 
s 2
f 2/3/1 8/2/5 14/1/5 11/4/1 
s 4
f 9/2/6 6/7/4 13/5/4 15/8/7 
s 8
f 8/2/5 9/3/6 15/6/7 14/8/5 
s 2
f 16/9/8 17/10/9 18/11/10 19/3/11 20/12/12 
s 4
f 21/10/13 22/11/14 23/3/15 24/12/16 25/9/17 
s 8
f 16/10/8 21/11/13 25/12/17 17/9/9 
s 16
f 17/10/9 25/11/17 24/12/16 18/9/10 
s 32
f 18/10/10 24/11/16 23/3/15 19/2/11 
s 64
f 20/10/12 22/11/14 21/12/13 16/9/8 
s 32
f 23/3/15 22/12/14 20/9/12 19/2/11 
s 2
f 26/9/8 27/10/9 28/11/10 29/3/18 30/12/19 
s 4
f 31/10/13 32/11/14 33/3/15 34/12/16 35/9/17 
s 8
f 26/10/8 31/11/13 35/12/17 27/9/9 
s 16
f 27/10/9 35/11/17 34/12/16 28/9/10 
s 32
f 28/10/10 34/11/16 33/3/15 29/2/18 
s 64
f 30/10/19 32/11/14 31/12/13 26/9/8 
s 32
f 33/3/15 32/12/14 30/9/19 29/2/18 
s 8
f 36/8/8 37/13/5 38/14/20 39/6/21 
s off
f 40/8/22 41/13/23 42/13/23 43/8/22 
f 44/6/24 45/15/25 46/15/26 47/6/27 
f 48/14/28 49/6/29 50/6/30 51/14/31 
s 1
f 48/14/28 52/13/32 53/16/33 49/6/29 
s off
f 42/13/23 37/13/5 36/8/8 43/8/22 
f 43/8/22 36/8/8 39/6/21 50/6/30 46/15/26 
f 54/6/34 55/6/35 56/17/36 57/17/37 
f 51/14/31 50/6/30 58/6/38 59/17/39 60/14/39 
f 50/6/30 39/6/21 61/6/21 58/6/38 
f 39/6/21 38/14/20 62/14/20 63/17/20 61/6/21 
f 56/17/36 64/14/40 65/14/41 57/17/37 
f 60/14/39 59/17/39 57/17/37 65/14/41 
f 59/17/39 58/6/38 54/6/34 57/17/37 
f 58/6/38 61/6/21 55/6/35 54/6/34 
f 61/6/21 63/17/20 56/17/36 55/6/35 
f 63/17/20 62/14/20 64/14/40 56/17/36 
f 45/15/25 40/8/22 43/8/22 46/15/26 
f 50/6/30 49/6/29 44/6/24 47/6/27 
f 49/6/29 45/15/25 44/6/24 
f 46/15/26 50/6/30 47/6/27 
f 53/16/33 52/13/32 66/13/42 
s 8
f 67/8/9 68/6/43 38/14/20 37/13/5 
s off
f 69/8/44 70/8/44 42/13/23 41/13/23 
f 71/6/45 72/6/46 73/15/47 74/15/48 
f 48/14/28 51/14/31 75/6/49 76/6/50 
f 48/13/28 77/13/51 78/13/52 79/13/53 
f 69/1/44 80/1/44 81/18/47 82/6/54 76/6/50 74/18/48 
s 1
f 48/14/28 76/6/50 83/16/55 77/13/51 
s off
f 42/13/23 70/8/44 67/8/9 37/13/5 
f 70/8/44 73/15/47 75/6/49 68/6/43 67/8/9 
f 84/6/56 85/17/57 86/17/58 87/6/59 
f 51/14/31 60/14/39 88/17/39 89/6/60 75/6/49 
f 75/6/49 89/6/60 90/6/43 68/6/43 
f 68/6/43 90/6/43 91/17/20 62/14/20 38/14/20 
f 86/17/58 85/17/57 65/14/41 64/14/40 
f 60/14/39 65/14/41 85/17/57 88/17/39 
f 88/17/39 85/17/57 84/6/56 89/6/60 
f 89/6/60 84/6/56 87/6/59 90/6/43 
f 90/6/43 87/6/59 86/17/58 91/17/20 
f 91/17/20 86/17/58 64/14/40 62/14/20 
f 74/15/48 73/15/47 70/8/44 69/8/44 
f 75/6/49 72/6/46 71/6/45 76/6/50 
f 76/6/50 71/6/45 74/15/48 
f 73/15/47 72/6/46 75/6/49 
f 83/16/55 92/13/61 77/13/51 
s 2
f 41/19/23 40/1/22 93/1/22 94/19/23 
s off
f 49/6/29 53/16/33 95/16/62 96/6/63 
f 83/16/55 76/6/50 82/6/54 97/16/64 
s 8
f 98/8/13 99/6/38 100/14/39 101/13/1 
s off
f 93/8/22 102/8/22 103/13/23 94/13/23 
f 104/6/27 105/6/24 106/15/25 107/15/26 
f 79/14/53 108/14/65 109/6/66 96/6/63 
f 79/13/53 110/13/67 52/13/32 48/13/28 
f 93/1/22 40/1/22 45/18/25 49/6/29 96/6/63 107/18/26 
f 111/13/68 95/16/62 53/16/33 66/13/42 
s 1
f 79/14/53 96/6/63 95/16/62 110/13/67 
s off
f 103/13/23 102/8/22 98/8/13 101/13/1 
f 102/8/22 106/15/25 109/6/66 99/6/38 98/8/13 
f 112/6/35 113/17/36 114/17/37 115/6/34 
f 108/14/65 116/14/20 117/17/20 118/6/21 109/6/66 
f 109/6/66 118/6/21 119/6/38 99/6/38 
f 99/6/38 119/6/38 120/17/39 121/14/39 100/14/39 
f 114/17/37 113/17/36 122/14/40 123/14/41 
f 116/14/20 122/14/40 113/17/36 117/17/20 
f 117/17/20 113/17/36 112/6/35 118/6/21 
f 118/6/21 112/6/35 115/6/34 119/6/38 
f 119/6/38 115/6/34 114/17/37 120/17/39 
f 120/17/39 114/17/37 123/14/41 121/14/39 
f 107/15/26 106/15/25 102/8/22 93/8/22 
f 109/6/66 105/6/24 104/6/27 96/6/63 
f 96/6/63 104/6/27 107/15/26 
f 106/15/25 105/6/24 109/6/66 
f 110/13/67 111/13/68 66/13/42 52/13/32 
f 95/16/62 111/13/68 110/13/67 
s 8
f 124/8/17 101/13/1 100/14/39 125/6/60 
s off
f 80/8/44 94/13/23 103/13/23 126/8/44 
f 127/6/46 81/15/47 128/15/48 129/6/45 
f 79/14/53 82/6/54 130/6/69 108/14/65 
f 131/13/70 92/13/61 83/16/55 97/16/64 
s 1
f 79/14/53 78/13/52 97/16/64 82/6/54 
s off
f 103/13/23 101/13/1 124/8/17 126/8/44 
f 126/8/44 124/8/17 125/6/60 130/6/69 128/15/48 
f 132/6/59 133/6/56 134/17/57 135/17/58 
f 108/14/65 130/6/69 136/6/43 137/17/20 116/14/20 
f 130/6/69 125/6/60 138/6/60 136/6/43 
f 125/6/60 100/14/39 121/14/39 139/17/39 138/6/60 
f 134/17/57 123/14/41 122/14/40 135/17/58 
f 116/14/20 137/17/20 135/17/58 122/14/40 
f 137/17/20 136/6/43 132/6/59 135/17/58 
f 136/6/43 138/6/60 133/6/56 132/6/59 
f 138/6/60 139/17/39 134/17/57 133/6/56 
f 139/17/39 121/14/39 123/14/41 134/17/57 
f 81/15/47 80/8/44 126/8/44 128/15/48 
f 130/6/69 82/6/54 127/6/46 129/6/45 
f 82/6/54 81/15/47 127/6/46 
f 128/15/48 130/6/69 129/6/45 
f 78/13/52 77/13/51 92/13/61 131/13/70 
f 97/16/64 78/13/52 131/13/70 
s 2
f 69/1/44 41/19/23 94/19/23 80/1/44 
f 140/9/71 141/20/22 142/21/44 143/10/72 
s 4
f 144/10/73 145/22/74 146/23/75 147/21/76 
s 8
f 140/10/71 143/9/72 148/24/77 149/25/78 
s 16
f 143/10/72 142/2/44 150/26/79 148/25/77 
s 32
f 151/10/17 152/9/13 153/24/38 154/25/60 
s 64
f 152/10/13 141/2/22 155/26/80 153/25/38 
s off
f 156/10/21 157/9/43 158/9/43 159/2/20 160/10/21 
f 157/9/43 161/20/79 162/20/81 163/20/82 158/9/43 
f 164/12/60 165/11/38 166/11/83 167/12/84 
f 165/11/38 168/21/80 169/21/85 166/11/83 
s 4
f 170/2/86 171/27/87 172/28/88 173/29/89 
s 2
f 141/20/22 152/12/13 151/11/17 142/21/44 
s 4
f 174/29/90 175/3/89 176/11/91 177/21/92 
s 16
f 142/2/44 151/9/17 154/24/60 150/26/79 
s 64
f 141/2/22 140/9/71 149/24/78 155/26/80 
s off
f 161/20/79 164/12/60 167/12/84 162/20/81 
f 168/21/80 156/10/21 160/10/21 177/21/92 169/21/85 
s 4
f 163/20/82 178/12/93 175/3/89 174/29/90 
s off
f 160/10/21 159/2/20 170/2/86 145/22/74 144/10/73 
f 159/2/20 158/9/43 179/9/94 171/27/87 170/2/86 
f 158/9/43 163/20/82 180/20/95 179/9/94 
f 163/20/82 174/29/90 173/29/89 172/28/88 180/20/95 
f 174/29/90 177/21/92 147/21/76 146/23/75 173/29/89 
f 177/21/92 160/10/21 144/10/73 147/21/76 
s 4
f 171/27/87 179/9/94 180/20/95 172/28/88 
f 145/22/74 170/2/86 173/29/89 146/23/75 
s off
f 166/11/83 176/11/91 175/3/89 178/12/93 167/12/84 
f 169/21/85 181/21/96 182/11/97 166/11/83 
f 167/12/84 183/12/98 184/20/99 162/20/81 
f 177/21/92 176/11/91 182/11/97 181/21/96 
f 176/11/91 166/11/83 182/11/97 
f 169/21/85 177/21/92 181/21/96 
f 178/12/93 163/20/82 184/20/99 183/12/98 
f 163/20/82 162/20/81 184/20/99 
f 167/12/84 178/12/93 183/12/98 
s 8
f 148/24/77 185/30/43 186/31/21 149/25/78 
s 16
f 150/26/79 187/32/79 185/31/43 148/25/77 
s 32
f 153/24/38 188/30/38 189/31/60 154/25/60 
s 64
f 155/26/80 190/32/80 188/31/38 153/25/38 
s 16
f 154/24/60 189/30/60 187/32/79 150/26/79 
s 64
f 149/24/78 186/30/21 190/32/80 155/26/80 
s 8
f 185/30/43 157/12/43 156/11/21 186/31/21 
s 16
f 187/32/79 161/3/79 157/11/43 185/31/43 
s 32
f 188/30/38 165/12/38 164/11/60 189/31/60 
s 64
f 190/32/80 168/3/80 165/11/38 188/31/38 
s 16
f 189/30/60 164/12/60 161/3/79 187/32/79 
s 64
f 186/30/21 156/12/21 168/3/80 190/32/80 
s 2
f 191/9/8 192/10/9 193/11/100 194/3/101 195/12/19 
s 4
f 196/10/13 197/11/14 198/3/102 199/12/16 200/9/17 
s 8
f 191/10/8 196/11/13 200/12/17 192/9/9 
s 16
f 192/10/9 200/11/17 199/12/16 193/9/100 
s 32
f 193/10/100 199/11/16 198/3/102 194/2/101 
s 64
f 195/10/19 197/11/14 196/12/13 191/9/8 
s 32
f 198/3/102 197/12/14 195/9/19 194/2/101 
s 2
f 201/9/8 202/10/9 203/11/10 204/3/18 205/12/19 
s 4
f 206/10/13 207/11/14 208/3/15 209/12/16 210/9/17 
s 8
f 201/10/8 206/11/13 210/12/17 202/9/9 
s 16
f 202/10/9 210/11/17 209/12/16 203/9/10 
s 32
f 203/10/10 209/11/16 208/3/15 204/2/18 
s 64
f 205/10/19 207/11/14 206/12/13 201/9/8 
s 32
f 208/3/15 207/12/14 205/9/19 204/2/18 
s 8
f 211/8/8 212/13/5 213/14/20 214/6/21 
s off
f 215/8/22 216/13/23 217/13/23 218/8/22 
f 219/6/24 220/15/25 221/15/26 222/6/27 
f 223/14/28 224/6/29 225/6/30 226/14/31 
s 1
f 223/14/28 227/13/32 228/16/33 224/6/29 
s off
f 217/13/23 212/13/5 211/8/8 218/8/22 
f 218/8/22 211/8/8 214/6/21 225/6/30 221/15/26 
f 229/6/34 230/6/35 231/17/36 232/17/37 
f 226/14/31 225/6/30 233/6/38 234/17/39 235/14/39 
f 225/6/30 214/6/21 236/6/21 233/6/38 
f 214/6/21 213/14/20 237/14/20 238/17/20 236/6/21 
f 231/17/36 239/14/40 240/14/41 232/17/37 
f 235/14/39 234/17/39 232/17/37 240/14/41 
f 234/17/39 233/6/38 229/6/34 232/17/37 
f 233/6/38 236/6/21 230/6/35 229/6/34 
f 236/6/21 238/17/20 231/17/36 230/6/35 
f 238/17/20 237/14/20 239/14/40 231/17/36 
f 220/15/25 215/8/22 218/8/22 221/15/26 
f 225/6/30 224/6/29 219/6/24 222/6/27 
f 224/6/29 220/15/25 219/6/24 
f 221/15/26 225/6/30 222/6/27 
f 228/16/33 227/13/32 241/13/42 
s 8
f 242/8/9 243/6/43 213/14/20 212/13/5 
s off
f 244/8/44 245/8/44 217/13/23 216/13/23 
f 246/6/45 247/6/46 248/15/47 249/15/48 
f 223/14/28 226/14/31 250/6/49 251/6/50 
f 223/13/28 252/13/51 253/13/52 254/13/53 
f 244/1/44 255/1/44 256/18/47 257/6/54 251/6/50 249/18/48 
s 1
f 223/14/28 251/6/50 258/16/55 252/13/51 
s off
f 217/13/23 245/8/44 242/8/9 212/13/5 
f 245/8/44 248/15/47 250/6/49 243/6/43 242/8/9 
f 259/6/56 260/17/57 261/17/58 262/6/59 
f 226/14/31 235/14/39 263/17/39 264/6/60 250/6/49 
f 250/6/49 264/6/60 265/6/43 243/6/43 
f 243/6/43 265/6/43 266/17/20 237/14/20 213/14/20 
f 261/17/58 260/17/57 240/14/41 239/14/40 
f 235/14/39 240/14/41 260/17/57 263/17/39 
f 263/17/39 260/17/57 259/6/56 264/6/60 
f 264/6/60 259/6/56 262/6/59 265/6/43 
f 265/6/43 262/6/59 261/17/58 266/17/20 
f 266/17/20 261/17/58 239/14/40 237/14/20 
f 249/15/48 248/15/47 245/8/44 244/8/44 
f 250/6/49 247/6/46 246/6/45 251/6/50 
f 251/6/50 246/6/45 249/15/48 
f 248/15/47 247/6/46 250/6/49 
f 258/16/55 267/13/61 252/13/51 
s 2
f 216/19/23 215/1/22 268/1/22 269/19/23 
s off
f 224/6/29 228/16/33 270/16/62 271/6/63 
f 258/16/55 251/6/50 257/6/54 272/16/64 
s 8
f 273/8/13 274/6/38 275/14/39 276/13/1 
s off
f 268/8/22 277/8/22 278/13/23 269/13/23 
f 279/6/27 280/6/24 281/15/25 282/15/26 
f 254/14/53 283/14/65 284/6/66 271/6/63 
f 254/13/53 285/13/67 227/13/32 223/13/28 
f 268/1/22 215/1/22 220/18/25 224/6/29 271/6/63 282/18/26 
f 286/13/68 270/16/62 228/16/33 241/13/42 
s 1
f 254/14/53 271/6/63 270/16/62 285/13/67 
s off
f 278/13/23 277/8/22 273/8/13 276/13/1 
f 277/8/22 281/15/25 284/6/66 274/6/38 273/8/13 
f 287/6/35 288/17/36 289/17/37 290/6/34 
f 283/14/65 291/14/20 292/17/20 293/6/21 284/6/66 
f 284/6/66 293/6/21 294/6/38 274/6/38 
f 274/6/38 294/6/38 295/17/39 296/14/39 275/14/39 
f 289/17/37 288/17/36 297/14/40 298/14/41 
f 291/14/20 297/14/40 288/17/36 292/17/20 
f 292/17/20 288/17/36 287/6/35 293/6/21 
f 293/6/21 287/6/35 290/6/34 294/6/38 
f 294/6/38 290/6/34 289/17/37 295/17/39 
f 295/17/39 289/17/37 298/14/41 296/14/39 
f 282/15/26 281/15/25 277/8/22 268/8/22 
f 284/6/66 280/6/24 279/6/27 271/6/63 
f 271/6/63 279/6/27 282/15/26 
f 281/15/25 280/6/24 284/6/66 
f 285/13/67 286/13/68 241/13/42 227/13/32 
f 270/16/62 286/13/68 285/13/67 
s 8
f 299/8/17 276/13/1 275/14/39 300/6/60 
s off
f 255/8/44 269/13/23 278/13/23 301/8/44 
f 302/6/46 256/15/47 303/15/48 304/6/45 
f 254/14/53 257/6/54 305/6/69 283/14/65 
f 306/13/70 267/13/61 258/16/55 272/16/64 
s 1
f 254/14/53 253/13/52 272/16/64 257/6/54 
s off
f 278/13/23 276/13/1 299/8/17 301/8/44 
f 301/8/44 299/8/17 300/6/60 305/6/69 303/15/48 
f 307/6/59 308/6/56 309/17/57 310/17/58 
f 283/14/65 305/6/69 311/6/43 312/17/20 291/14/20 
f 305/6/69 300/6/60 313/6/60 311/6/43 
f 300/6/60 275/14/39 296/14/39 314/17/39 313/6/60 
f 309/17/57 298/14/41 297/14/40 310/17/58 
f 291/14/20 312/17/20 310/17/58 297/14/40 
f 312/17/20 311/6/43 307/6/59 310/17/58 
f 311/6/43 313/6/60 308/6/56 307/6/59 
f 313/6/60 314/17/39 309/17/57 308/6/56 
f 314/17/39 296/14/39 298/14/41 309/17/57 
f 256/15/47 255/8/44 301/8/44 303/15/48 
f 305/6/69 257/6/54 302/6/46 304/6/45 
f 257/6/54 256/15/47 302/6/46 
f 303/15/48 305/6/69 304/6/45 
f 253/13/52 252/13/51 267/13/61 306/13/70 
f 272/16/64 253/13/52 306/13/70 
s 2
f 244/1/44 216/19/23 269/19/23 255/1/44 
# 257 polygons - 28 triangles

