# 3ds Max Wavefront OBJ Exporter v0.99 - (c)2007 guruware
# File Created: 19.12.2023 18:30:29

mtllib univ_ground.mtl

#
# object Ground
#

v  -269.6850 -5.8730 -232.2835
v  -269.6850 -5.8730 232.2835
v  269.6850 -5.8730 232.2835
v  269.6850 -5.8730 -232.2835
# 4 vertices

vn 0.0000 1.0000 -0.0000
# 1 vertex normals

vt 0.0414 0.8848 0.0000
vt 0.0414 0.0948 0.0000
vt 0.9586 0.0948 0.0000
vt 0.9586 0.8848 0.0000
# 4 texture coords

o Ground
g Ground
usemtl wire_166229229
s 1
f 1/1/1 2/2/1 3/3/1 4/4/1 
# 1 polygons

