# 3ds Max Wavefront OBJ Exporter v0.99 - (c)2007 guruware
# File Created: 21.12.2023 10:39:00

mtllib univ_union.mtl

#
# object univ_1
#

v  -149.2832 0.0000 -94.2540
v  -158.4863 0.0000 -104.1758
v  -135.0398 0.0000 -104.1758
v  -137.6269 0.0000 -94.2540
v  -149.2832 19.2102 -94.2540
v  -137.6269 19.2102 -94.2540
v  -135.0398 19.2102 -104.1758
v  -158.4863 19.2102 -104.1758
v  -116.6126 0.0000 -94.2540
v  -116.6126 0.0000 -104.1758
v  -116.6126 19.2102 -104.1758
v  -116.6126 19.2102 -94.2540
v  -128.7758 0.0000 -117.2965
v  -136.6846 0.0000 -109.5812
v  -136.6846 19.2102 -109.5812
v  -128.7758 19.2102 -117.2965
v  -116.6153 19.2102 -117.3106
v  -135.0398 19.2102 -107.6946
v  -116.6153 0.0000 -117.3106
v  -135.0398 0.0000 -107.6946
v  -148.5698 7.6136 -85.3338
v  -165.4194 7.6136 -103.7157
v  -157.5768 7.6136 -103.7157
v  -148.4573 7.6136 -94.1189
v  -148.5698 8.6908 -85.3338
v  -148.4573 8.6908 -94.1189
v  -157.5768 8.6908 -103.7157
v  -165.4194 8.6908 -103.7157
v  -149.4433 0.0000 -82.5620
v  -149.4433 0.0000 -94.4045
v  -114.6716 0.0000 -94.4045
v  -114.6716 0.0000 -82.5620
v  -149.4433 23.6762 -82.5620
v  -114.6716 23.6762 -82.5620
v  -114.6716 26.6593 -89.4071
v  -149.4433 26.6593 -89.4071
v  -114.6716 26.6593 -94.4045
v  -149.4433 26.6593 -94.4045
v  -157.7509 0.0000 -121.8984
v  -146.3778 0.0000 -121.8984
v  -146.3778 0.0000 -103.7249
v  -157.7509 0.0000 -103.7249
v  -157.7509 28.4476 -103.7249
v  -146.3778 28.4476 -103.7249
v  -146.3778 28.4476 -107.7337
v  -157.7509 28.4476 -107.7337
v  -135.0047 0.0000 -103.7249
v  -135.0047 0.0000 -107.7337
v  -135.0047 28.4476 -107.7337
v  -135.0047 28.4476 -103.7249
v  -157.7509 26.5444 -121.8984
v  -146.3778 26.5444 -121.8984
v  -169.1240 0.0000 -107.7337
v  -169.1240 0.0000 -103.7249
v  -169.1240 28.4476 -103.7249
v  -169.1240 28.4476 -107.7337
v  -122.2152 0.0000 -96.9788
v  -122.2152 0.0000 -108.7268
v  -108.2625 0.0000 -108.7268
v  -108.2625 0.0000 -96.9788
v  -122.2152 24.4973 -96.9788
v  -108.2625 24.4973 -96.9788
v  -108.2625 24.4973 -108.7268
v  -122.2152 24.4973 -108.7268
v  -148.2321 0.0000 -136.0990
v  -142.2459 0.0000 -142.0853
v  -116.4980 0.0000 -116.3374
v  -122.4842 0.0000 -110.3512
v  -148.2321 27.5041 -136.0990
v  -122.4842 27.5041 -110.3512
v  -116.4980 27.5041 -116.3374
v  -142.2459 27.5041 -142.0853
v  -112.4879 0.0000 -120.3474
v  -138.2358 0.0000 -146.0953
v  -138.2358 27.5041 -146.0953
v  -112.4879 27.5041 -120.3474
v  -145.2500 0.0000 -145.0894
v  -151.2362 0.0000 -139.1031
v  -151.2362 27.5041 -139.1031
v  -145.2500 27.5041 -145.0894
# 80 vertices

vn -0.3115 -0.6272 0.7139
vn -0.7667 -0.5479 -0.3346
vn -0.3015 -0.9045 -0.3015
vn 0.0000 -0.7071 0.7071
vn -0.3115 0.6272 0.7139
vn 0.0000 0.7071 0.7071
vn -0.3015 0.9045 -0.3015
vn -0.7667 0.5479 -0.3346
vn 0.5774 -0.5774 0.5774
vn 0.7071 -0.7071 -0.0001
vn 0.7071 0.7071 -0.0001
vn 0.5774 0.5774 0.5774
vn -0.2927 -0.6314 -0.7181
vn -0.8137 -0.5804 -0.0330
vn -0.8137 0.5804 -0.0330
vn -0.2927 0.6314 -0.7181
vn 0.5770 0.5773 -0.5778
vn -0.5677 0.7953 0.2127
vn 0.5770 -0.5773 -0.5778
vn -0.5677 -0.7953 0.2127
vn 0.2984 -0.5462 0.7827
vn -0.7656 -0.5481 -0.3368
vn 0.3068 -0.6282 -0.7150
vn 0.7220 -0.6314 -0.2830
vn 0.2984 0.5462 0.7827
vn 0.7220 0.6314 -0.2830
vn 0.3068 0.6282 -0.7150
vn -0.7656 0.5481 -0.3368
vn -0.5774 -0.5774 0.5774
vn -0.5774 -0.5774 -0.5774
vn 0.5774 -0.5774 -0.5774
vn -0.5954 0.4739 0.6488
vn 0.5954 0.4739 0.6488
vn 0.6741 0.7299 0.1137
vn -0.6741 0.7299 0.1137
vn 0.5774 0.5774 -0.5774
vn -0.5774 0.5774 -0.5774
vn -0.3387 -0.6215 -0.7064
vn 0.3387 -0.6215 -0.7064
vn 0.0000 0.9988 -0.0490
vn 0.7252 -0.6395 -0.2551
vn 0.7160 0.6446 -0.2678
vn -0.3361 0.5846 -0.7384
vn 0.3361 0.5846 -0.7384
vn -0.7252 -0.6395 -0.2551
vn -0.5774 0.5774 0.5774
vn -0.7160 0.6446 -0.2678
vn -0.5000 -0.7071 0.5000
vn -0.0000 -0.9045 -0.4264
vn 0.5000 -0.7071 0.5000
vn 0.0001 -0.5773 0.8165
vn -0.5000 0.7071 0.5000
vn 0.0001 0.5773 0.8165
vn 0.5000 0.7071 0.5000
vn -0.0000 0.9045 -0.4264
vn 0.8165 -0.5774 0.0001
vn -0.0001 -0.5774 -0.8165
vn -0.0001 0.5774 -0.8165
vn 0.8165 0.5774 0.0001
vn 0.0000 -0.5774 -0.8165
vn -0.8165 -0.5774 -0.0000
vn -0.8165 0.5774 -0.0000
vn 0.0000 0.5774 -0.8165
# 63 vertex normals

vt 1.0000 0.0000 0.0000
vt 1.0000 1.0000 0.0000
vt 0.5000 1.0000 0.0000
vt 0.5000 0.0000 0.0000
vt 0.0000 0.0000 0.0000
vt 0.0000 1.0000 0.0000
vt 1.0000 0.5000 0.0000
vt 0.0000 0.5000 0.0000
vt 0.6667 1.0000 0.0000
vt 0.3333 1.0000 0.0000
vt 0.3333 0.0000 0.0000
vt 0.6667 0.0000 0.0000
vt 0.6667 0.2206 0.0000
vt 0.3333 0.2206 0.0000
# 14 texture coords

o univ_1
g univ_1
usemtl wire_115115115
s 2
f 1/1/1 2/2/2 3/3/3 4/4/4 
s 4
f 5/5/5 6/4/6 7/3/7 8/6/8 
s 8
f 1/5/1 4/4/4 6/3/6 5/6/5 
s 16
f 9/5/9 10/1/10 11/2/11 12/6/12 
s 32
f 13/5/13 14/4/14 15/3/15 16/6/16 
s 64
f 2/5/2 1/1/1 5/2/5 8/6/8 
s 2
f 3/3/3 10/6/10 9/5/9 4/4/4 
s 4
f 6/4/6 12/1/12 11/2/11 7/3/7 
s 8
f 4/4/4 9/1/9 12/2/12 6/3/6 
s 32
f 3/4/3 2/1/2 8/2/8 7/3/7 
s off
f 7/3/7 11/6/11 17/6/17 18/3/18 
f 11/6/11 10/5/10 19/5/19 17/6/17 
f 10/5/10 3/4/3 20/4/20 19/5/19 
f 3/4/3 7/3/7 18/3/18 20/4/20 
f 18/3/18 17/6/17 16/6/16 15/3/15 
f 17/6/17 19/5/19 13/5/13 16/6/16 
f 19/5/19 20/4/20 14/4/14 13/5/13 
f 20/4/20 18/3/18 15/3/15 14/4/14 
s 2
f 21/1/21 22/2/22 23/6/23 24/5/24 
s 4
f 25/5/25 26/1/26 27/2/27 28/6/28 
s 8
f 21/5/21 24/1/24 26/2/26 25/6/25 
s 16
f 24/5/24 23/1/23 27/2/27 26/6/26 
s 32
f 23/5/23 22/1/22 28/2/28 27/6/27 
s 64
f 22/5/22 21/1/21 25/2/25 28/6/28 
s 2
f 29/1/29 30/2/30 31/6/31 32/5/9 
s 4
f 33/5/32 34/1/33 35/7/34 36/8/35 
s 8
f 29/5/29 32/1/9 34/2/33 33/6/32 
s 16
f 32/5/9 31/1/31 37/2/36 35/3/34 34/6/33 
s 32
f 31/5/31 30/1/30 38/2/37 37/6/36 
s 64
f 30/5/30 29/1/29 33/2/32 36/3/35 38/6/37 
s 4
f 35/7/34 37/2/36 38/6/37 36/8/35 
s 2
f 39/9/38 40/10/39 41/11/4 42/12/4 
s 4
f 43/11/6 44/12/6 45/13/40 46/14/40 
s 8
f 42/11/4 41/12/4 44/9/6 43/10/6 
s 16
f 47/5/9 48/1/41 49/2/42 50/6/12 
s 32
f 40/11/39 39/12/38 51/9/43 52/10/44 
s 64
f 53/5/45 54/1/29 55/2/46 56/6/47 
s 2
f 40/10/39 48/6/41 47/5/9 41/11/4 
f 42/12/4 54/1/29 53/2/45 39/9/38 
s 4
f 44/12/6 50/1/12 49/2/42 45/13/40 
f 56/6/47 55/5/46 43/11/6 46/14/40 
s 8
f 41/12/4 47/1/9 50/2/12 44/9/6 
f 43/10/6 55/6/46 54/5/29 42/11/4 
s 32
f 39/12/38 53/1/45 56/2/47 51/9/43 
f 52/10/44 49/6/42 48/5/41 40/11/39 
s 4
f 49/2/42 52/9/44 45/13/40 
f 45/13/40 52/9/44 51/10/43 46/14/40 
f 46/14/40 51/10/43 56/6/47 
s 2
f 57/1/29 58/2/30 59/6/31 60/5/9 
s 4
f 61/5/46 62/1/12 63/2/36 64/6/37 
s 8
f 57/5/29 60/1/9 62/2/12 61/6/46 
s 16
f 60/5/9 59/1/31 63/2/36 62/6/12 
s 32
f 59/5/31 58/1/30 64/2/37 63/6/36 
s 64
f 58/5/30 57/1/29 61/2/46 64/6/37 
s 2
f 65/1/48 66/7/49 67/8/50 68/5/51 
s 4
f 69/5/52 70/1/53 71/7/54 72/8/55 
s 8
f 65/5/48 68/1/51 70/2/53 69/6/52 
s 16
f 68/5/51 67/4/50 71/3/54 70/6/53 
s 32
f 73/5/56 74/1/57 75/2/58 76/6/59 
s 64
f 74/5/57 66/4/49 72/3/55 75/6/58 
s 2
f 66/7/49 74/2/57 73/6/56 67/8/50 
s 4
f 71/7/54 76/2/59 75/6/58 72/8/55 
s 16
f 67/4/50 73/1/56 76/2/59 71/3/54 
s 64
f 77/4/60 78/1/61 79/2/62 80/3/63 
s off
f 66/4/49 65/1/48 78/1/61 77/4/60 
f 65/1/48 69/2/52 79/2/62 78/1/61 
f 69/2/52 72/3/55 80/3/63 79/2/62 
f 72/3/55 66/4/49 77/4/60 80/3/63 
# 66 polygons - 2 triangles

