# 3ds Max Wavefront OBJ Exporter v0.99 - (c)2007 guruware
# File Created: 19.12.2023 19:02:36

mtllib univ_designhall.mtl

#
# object univ_designhall
#

v  76.2300 0.0000 69.0390
v  76.2300 0.0000 48.5543
v  96.4505 0.0000 48.5543
v  96.4505 0.0000 69.0390
v  93.8442 0.0000 69.0390
v  76.2300 21.7954 69.0390
v  93.8442 21.7954 69.0390
v  96.4505 21.7954 69.0390
v  96.4505 21.7954 48.5543
v  76.2300 21.7954 48.5543
v  76.2300 0.0000 95.5320
v  96.4505 0.0000 95.5320
v  96.4505 21.7954 95.5320
v  76.2300 21.7954 95.5320
v  76.2300 16.8914 95.5320
v  76.2300 16.3465 95.5320
v  76.2300 11.4426 95.5320
v  76.2300 10.8977 95.5320
v  76.2300 5.9937 95.5320
v  76.2300 5.4488 95.5320
v  116.6710 0.0000 69.0390
v  116.6710 0.0000 48.5543
v  116.6710 5.4488 48.5543
v  116.6710 5.9937 48.5543
v  116.6710 10.8977 48.5543
v  116.6710 11.4426 48.5543
v  116.6710 16.3465 48.5543
v  116.6710 16.8914 48.5543
v  116.6710 21.7954 48.5543
v  116.6710 21.7954 69.0390
v  96.4505 5.4488 48.1606
v  96.4505 5.9937 48.1606
v  116.6710 5.9937 48.1606
v  116.6710 5.4488 48.1606
v  75.8363 5.4488 69.0390
v  75.8363 5.9937 69.0390
v  75.8363 5.9937 48.1606
v  75.8363 5.4488 48.1606
v  76.2300 16.3465 69.0390
v  76.2300 11.4426 69.0390
v  76.2300 11.4426 78.7644
v  76.2300 16.3465 78.7644
v  93.8442 0.0000 78.7644
v  76.2300 0.0000 78.7644
v  96.4505 16.3465 48.1606
v  96.4505 16.8914 48.1606
v  116.6710 16.8914 48.1606
v  116.6710 16.3465 48.1606
v  96.4505 10.8977 48.1606
v  96.4505 11.4426 48.1606
v  116.6710 11.4426 48.1606
v  116.6710 10.8977 48.1606
v  96.4505 5.4488 48.5543
v  75.8363 16.3465 69.0390
v  75.8363 16.8914 69.0390
v  75.8363 16.8914 48.1606
v  75.8363 16.3465 48.1606
v  75.8363 10.8977 69.0390
v  75.8363 11.4426 69.0390
v  75.8363 11.4426 48.1606
v  75.8363 10.8977 48.1606
v  76.2300 5.4488 48.5543
v  76.2300 5.4488 69.0390
v  76.2300 5.4488 78.7644
v  76.2300 10.8977 69.0390
v  76.2300 5.9937 69.0390
v  76.2300 5.9937 78.7644
v  76.2300 10.8977 78.7644
v  75.8363 16.3465 95.5320
v  75.8363 16.8914 95.5320
v  75.8363 16.8914 78.7644
v  75.8363 16.3465 78.7644
v  96.4505 5.9937 48.5543
v  96.4505 10.8977 48.5543
v  76.2300 10.8977 48.5543
v  76.2300 5.9937 48.5543
v  75.8363 5.4488 78.7644
v  75.8363 5.9937 78.7644
v  75.8363 10.8977 78.7644
v  75.8363 11.4426 78.7644
v  96.4505 11.4426 48.5543
v  96.4505 16.3465 48.5543
v  76.2300 16.3465 48.5543
v  76.2300 11.4426 48.5543
v  96.4505 16.8914 48.5543
v  76.2300 16.8914 69.0390
v  76.2300 16.8914 48.5543
v  76.2300 21.7954 78.7644
v  76.2300 16.8914 78.7644
v  75.8363 5.9937 95.5320
v  75.8363 5.4488 95.5320
v  75.8363 11.4426 95.5320
v  75.8363 10.8977 95.5320
v  96.4505 21.7954 78.7644
v  93.8442 21.7954 78.7644
v  96.4505 0.0000 78.7644
v  96.2267 0.0000 96.2475
v  96.2267 0.0000 80.4148
v  107.5129 0.0000 80.4148
v  107.5129 0.0000 96.2475
v  96.2267 16.3914 96.2475
v  107.5129 16.3914 96.2475
v  107.5129 16.3914 80.4148
v  96.2267 16.3914 80.4148
v  107.5129 9.6311 96.2475
v  96.2267 9.6311 96.2475
v  107.5129 9.6311 80.4148
v  96.2267 9.6311 80.4148
v  96.2267 9.6311 76.4778
v  96.2267 16.3914 76.4778
v  107.5129 16.3914 76.4778
v  107.5129 9.6311 76.4778
v  75.4673 0.0000 124.2895
v  75.4673 0.0000 120.1082
v  98.2589 0.0000 120.1082
v  98.2589 0.0000 124.2895
v  98.2589 20.8397 124.2895
v  98.2589 26.3629 120.1082
v  75.4673 26.3629 120.1082
v  75.4673 20.8397 124.2895
v  75.4673 0.0000 135.0416
v  98.2589 0.0000 135.0416
v  98.2589 20.8397 135.0416
v  75.4673 20.8397 135.0416
v  98.2589 0.0000 95.2192
v  75.4673 0.0000 95.2192
v  75.4673 20.8397 95.2192
v  98.2589 20.8397 95.2192
v  75.4673 0.0000 105.9712
v  75.4673 0.0000 110.1526
v  75.4673 26.3629 110.1526
v  75.4673 20.8397 105.9712
v  75.4673 0.0000 104.3783
v  75.4673 0.0000 100.1970
v  98.2589 0.0000 100.1970
v  98.2589 0.0000 104.3783
v  75.4673 0.0000 114.3339
v  98.2589 0.0000 110.1526
v  98.2589 0.0000 114.3339
v  98.2589 0.0000 125.8824
v  98.2589 0.0000 130.0638
v  75.4673 0.0000 130.0638
v  75.4673 0.0000 125.8824
v  98.2589 20.8397 104.3783
v  98.2589 26.3629 100.1970
v  75.4673 26.3629 100.1970
v  75.4673 20.8397 104.3783
v  98.2589 20.8397 114.3339
v  98.2589 26.3629 110.1526
v  75.4673 20.8397 114.3339
v  75.4673 20.8397 125.8824
v  75.4673 26.3629 130.0638
v  98.2589 26.3629 130.0638
v  98.2589 20.8397 125.8824
v  75.4673 0.0000 115.9268
v  75.4673 20.8397 115.9268
v  75.4673 0.0000 96.0156
v  98.2589 0.0000 96.0156
v  98.2589 0.0000 105.1748
v  75.4673 0.0000 105.1748
v  98.2589 20.8397 96.0156
v  75.4673 20.8397 96.0156
v  75.4673 20.8397 105.1748
v  98.2589 20.8397 105.1748
v  75.4673 0.0000 115.1304
v  75.4673 20.8397 115.1304
v  98.2589 0.0000 105.9712
v  98.2589 0.0000 115.1304
v  98.2589 20.8397 105.9712
v  98.2589 20.8397 115.1304
v  98.2589 0.0000 115.9268
v  98.2589 0.0000 125.0860
v  75.4673 0.0000 125.0860
v  98.2589 20.8397 115.9268
v  75.4673 20.8397 125.0860
v  98.2589 20.8397 125.0860
v  98.2589 0.0000 134.2451
v  75.4673 0.0000 134.2451
v  75.4673 20.8397 134.2451
v  98.2589 20.8397 134.2451
# 180 vertices

vn -0.7071 -0.7071 -0.0000
vn -0.5774 -0.5774 -0.5774
vn 0.0000 -0.7071 -0.7071
vn 0.0000 -0.7071 0.7071
vn 0.3015 -0.9045 0.3015
vn -0.7071 0.7071 -0.0000
vn 0.3015 0.9045 0.3015
vn 0.0000 0.7071 0.7071
vn 0.0000 0.7071 -0.7071
vn -0.5774 0.5774 -0.5774
vn -0.5774 -0.5774 0.5774
vn 0.5774 -0.5774 0.5774
vn 0.5774 0.5774 0.5774
vn -0.5774 0.5774 0.5774
vn -0.3015 0.3015 0.9045
vn -0.3015 -0.3015 0.9045
vn 0.5774 -0.5774 -0.5774
vn 0.9045 -0.3015 -0.3015
vn 0.9045 0.3015 -0.3015
vn 0.5774 0.5774 -0.5774
vn -0.7071 0.7071 0.0000
vn 0.3015 -0.9045 -0.3015
vn -0.3015 -0.9045 -0.3015
vn -0.3015 0.9045 -0.3015
vn 0.3015 0.9045 -0.3015
vn 0.7071 0.7071 -0.0000
vn 0.7071 0.0000 0.7071
vn -0.7071 0.0000 0.7071
vn -0.9045 -0.3015 -0.3015
vn 0.7071 -0.7071 -0.0000
vn 0.8223 0.5096 0.2534
vn 0.5643 0.8256 -0.0000
vn -0.5643 0.8256 -0.0000
vn -0.8223 0.5096 0.2534
vn -0.8223 0.5096 -0.2534
vn 0.8223 0.5096 -0.2534
# 36 vertex normals

vt 1.0000 0.0000 0.0000
vt 1.0000 1.0000 0.0000
vt 0.5000 1.0000 0.0000
vt 0.5000 0.0000 0.0000
vt 0.7500 0.0000 0.0000
vt 0.0000 0.0000 0.0000
vt 0.2500 0.0000 0.0000
vt 0.0000 1.0000 0.0000
vt 0.0000 0.7750 0.0000
vt 0.0000 0.7500 0.0000
vt 0.0000 0.5250 0.0000
vt 0.0000 0.5000 0.0000
vt 0.0000 0.2750 0.0000
vt 0.0000 0.2500 0.0000
vt 1.0000 0.2500 0.0000
vt 1.0000 0.2750 0.0000
vt 1.0000 0.5000 0.0000
vt 1.0000 0.5250 0.0000
vt 1.0000 0.7500 0.0000
vt 1.0000 0.7750 0.0000
vt 0.5000 0.2500 0.0000
vt 0.5000 0.2750 0.0000
vt 0.5000 0.7500 0.0000
vt 0.5000 0.7750 0.0000
vt 0.5000 0.5000 0.0000
vt 0.5000 0.5250 0.0000
vt 0.2500 1.0000 0.0000
vt 1.0000 0.2700 0.0000
vt 1.0000 0.3750 0.0000
vt 0.0000 0.3750 0.0000
vt 0.0000 0.2700 0.0000
vt 0.2700 0.0000 0.0000
vt 0.3750 0.0000 0.0000
vt 0.3750 1.0000 0.0000
vt 0.2700 1.0000 0.0000
vt 1.0000 0.7700 0.0000
vt 1.0000 0.8750 0.0000
vt 0.0000 0.8750 0.0000
vt 0.0000 0.7700 0.0000
vt 1.0000 0.5200 0.0000
vt 1.0000 0.6250 0.0000
vt 0.0000 0.6250 0.0000
vt 0.0000 0.5200 0.0000
vt 0.0000 0.2300 0.0000
vt 0.0000 0.1250 0.0000
vt 1.0000 0.1250 0.0000
vt 1.0000 0.2300 0.0000
vt 0.7700 0.0000 0.0000
vt 0.8750 0.0000 0.0000
vt 0.8750 1.0000 0.0000
vt 0.7700 1.0000 0.0000
vt 0.5200 0.0000 0.0000
vt 0.6250 0.0000 0.0000
vt 0.6250 1.0000 0.0000
vt 0.5200 1.0000 0.0000
vt 0.2300 1.0000 0.0000
vt 0.1250 1.0000 0.0000
vt 0.1250 0.0000 0.0000
vt 0.2300 0.0000 0.0000
vt 1.0000 0.9800 0.0000
vt 0.0000 0.9800 0.0000
vt 0.9800 0.0000 0.0000
vt 0.9800 1.0000 0.0000
vt 0.7500 1.0000 0.0000
vt 0.0200 1.0000 0.0000
vt 0.0200 0.0000 0.0000
vt 0.4800 0.0000 0.0000
vt 0.4800 1.0000 0.0000
vt 1.0000 0.7300 0.0000
vt 0.0000 0.7300 0.0000
vt 0.7300 0.0000 0.0000
vt 0.7300 1.0000 0.0000
vt 1.0000 0.4800 0.0000
vt 0.0000 0.4800 0.0000
vt 0.0000 0.0200 0.0000
vt 1.0000 0.0200 0.0000
# 76 texture coords

o univ_designhall
g univ_designhall
usemtl wire_115115115
s 2
f 1/1/1 2/2/2 3/3/3 4/4/4 5/5/5 
s 4
f 6/6/6 7/7/7 8/4/8 9/3/9 10/8/10 
s 8
f 11/6/11 12/4/12 13/3/13 14/8/14 15/9/15 16/10/16 17/11/15 18/12/16 19/13/15 20/14/16 
s 16
f 21/6/12 22/1/17 23/15/18 24/16/19 25/17/18 26/18/19 27/19/18 28/20/19 29/2/20 30/8/13 
s 32
f 31/21/3 32/22/9 33/13/20 34/14/17 
s 64
f 35/15/1 36/16/21 37/13/10 38/14/2 
s 2
f 3/3/3 22/8/17 21/6/12 4/4/4 
s 4
f 8/4/8 30/1/13 29/2/20 9/3/9 
s 8
f 4/4/4 21/1/12 30/2/13 8/3/8 
s 32
f 38/15/2 37/16/10 32/22/9 31/21/3 
s off
f 39/10/1 40/11/6 41/11/6 42/10/1 
f 1/6/1 5/7/5 43/7/22 44/6/1 
s 32
f 45/23/3 46/24/9 47/9/20 48/10/17 
f 49/25/3 50/26/9 51/11/20 52/12/17 
f 23/14/18 22/6/17 3/4/3 53/21/3 
s 64
f 54/19/1 55/20/6 56/9/10 57/10/2 
f 58/17/1 59/18/6 60/11/10 61/12/2 
f 62/14/23 2/6/2 1/1/1 63/15/1 
s 32
f 57/19/2 56/20/10 46/24/9 45/23/3 
f 61/17/2 60/18/10 50/26/9 49/25/3 
f 53/21/3 3/4/3 2/1/2 62/15/23 
s off
f 63/14/1 1/6/1 44/6/1 64/14/1 
f 65/12/1 66/13/21 67/13/6 68/12/1 
f 69/10/11 70/9/14 71/9/6 72/10/1 
s 32
f 73/22/9 74/25/3 25/12/18 24/13/19 
s 64
f 66/16/21 65/17/1 75/12/23 76/13/24 
s 32
f 76/16/24 75/17/23 74/25/3 73/22/9 
s off
f 36/13/21 35/14/1 77/14/1 78/13/6 
f 59/11/6 58/12/1 79/12/1 80/11/6 
s 32
f 81/26/9 82/23/3 27/10/18 26/11/19 
s 64
f 40/18/6 39/19/1 83/10/23 84/11/24 
s 32
f 84/18/24 83/19/23 82/23/3 81/26/9 
f 85/24/9 9/3/9 29/8/20 28/9/19 
s 64
f 86/20/6 6/2/6 10/8/10 87/9/24 
s 32
f 87/20/24 10/2/10 9/3/9 85/24/9 
s off
f 15/9/15 14/8/14 88/8/6 89/9/6 
f 24/13/19 23/14/18 34/14/17 33/13/20 
f 23/14/18 53/21/3 31/21/3 34/14/17 
f 53/21/3 62/15/23 38/15/2 31/21/3 
f 62/14/23 63/15/1 35/15/1 38/14/2 
f 63/14/1 64/14/1 77/14/1 35/14/1 
f 20/14/16 19/13/15 90/13/14 91/14/11 
f 19/13/15 67/13/6 78/13/6 90/13/14 
f 66/16/21 76/13/24 37/13/10 36/16/21 
f 76/16/24 73/22/9 32/22/9 37/16/10 
f 73/22/9 24/13/19 33/13/20 32/22/9 
f 28/9/19 27/10/18 48/10/17 47/9/20 
f 27/10/18 82/23/3 45/23/3 48/10/17 
f 82/23/3 83/19/23 57/19/2 45/23/3 
f 83/10/23 39/19/1 54/19/1 57/10/2 
f 39/10/1 42/10/1 72/10/1 54/10/1 
f 16/10/16 15/9/15 70/9/14 69/10/11 
f 15/9/15 89/9/6 71/9/6 70/9/14 
f 86/20/6 87/9/24 56/9/10 55/20/6 
f 87/20/24 85/24/9 46/24/9 56/20/10 
f 85/24/9 28/9/19 47/9/20 46/24/9 
f 26/11/19 25/12/18 52/12/17 51/11/20 
f 25/12/18 74/25/3 49/25/3 52/12/17 
f 74/25/3 75/17/23 61/17/2 49/25/3 
f 75/12/23 65/17/1 58/17/1 61/12/2 
f 65/12/1 68/12/1 79/12/1 58/12/1 
f 18/12/16 17/11/15 92/11/14 93/12/11 
f 17/11/15 41/11/6 80/11/6 92/11/14 
f 40/18/6 84/11/24 60/11/10 59/18/6 
f 84/18/24 81/26/9 50/26/9 60/18/10 
f 81/26/9 26/11/19 51/11/20 50/26/9 
f 88/8/6 14/8/14 13/3/13 94/3/20 95/27/25 
f 41/11/6 17/11/15 16/10/16 42/10/1 
f 96/4/17 12/4/12 11/6/11 44/6/1 43/7/22 
f 94/3/20 13/3/13 12/4/12 96/4/17 
f 44/6/1 11/6/11 20/14/16 64/14/1 
f 67/13/6 19/13/15 18/12/16 68/12/1 
f 71/9/6 55/9/6 54/10/1 72/10/1 
f 77/14/1 91/14/11 90/13/14 78/13/6 
f 79/12/1 93/12/11 92/11/14 80/11/6 
f 88/8/6 6/8/6 86/9/6 89/9/6 
f 64/14/1 20/14/16 91/14/11 77/14/1 
f 67/13/6 66/13/21 36/13/21 78/13/6 
f 42/10/1 16/10/16 69/10/11 72/10/1 
f 89/9/6 86/9/6 55/9/6 71/9/6 
f 68/12/1 18/12/16 93/12/11 79/12/1 
f 41/11/6 40/11/6 59/11/6 80/11/6 
f 7/27/7 6/8/6 88/8/6 95/27/25 
f 5/7/5 4/4/4 8/3/8 7/7/7 
f 43/7/22 5/7/5 7/7/7 95/27/25 
f 95/27/25 94/3/20 96/4/17 43/7/22 
s 2
f 97/1/11 98/2/2 99/8/17 100/6/12 
s 4
f 101/6/14 102/1/13 103/2/26 104/8/6 
s 8
f 97/6/11 100/1/12 105/17/27 106/12/28 
s 16
f 100/6/12 99/1/17 107/17/18 105/12/27 
s 32
f 99/6/17 98/1/2 108/17/29 107/12/18 
s 64
f 98/6/2 97/1/11 106/17/28 108/12/29 
s 8
f 105/17/27 102/2/13 101/8/14 106/12/28 
s 16
f 107/17/18 103/2/26 102/8/13 105/12/27 
s 32
f 109/17/2 110/2/10 111/8/20 112/12/17 
s 64
f 106/17/28 101/2/14 104/8/6 108/12/29 
s off
f 104/2/6 103/8/26 111/8/20 110/2/10 
f 103/8/26 107/12/18 112/12/17 111/8/20 
f 107/12/18 108/17/29 109/17/2 112/12/17 
f 108/17/29 104/2/6 110/2/10 109/17/2 
s 2
f 113/28/1 114/29/1 115/30/30 116/31/30 
s 4
f 117/28/31 118/29/32 119/30/33 120/31/34 
s 8
f 121/6/11 122/1/12 123/2/13 124/8/14 
s 16
f 116/32/30 115/33/30 118/34/32 117/35/31 
s 32
f 125/6/17 126/1/2 127/2/10 128/8/20 
s 64
f 129/32/1 130/33/1 131/34/33 132/35/35 
s 2
f 133/36/1 134/37/1 135/38/30 136/39/30 
f 137/40/1 130/41/1 138/42/30 139/43/30 
f 140/44/30 141/45/30 142/46/1 143/47/1 
s 4
f 144/36/31 145/37/32 146/38/33 147/39/34 
f 148/40/31 149/41/32 131/42/33 150/43/34 
f 151/44/35 152/45/33 153/46/32 154/47/36 
s 16
f 136/48/30 135/49/30 145/50/32 144/51/31 
f 139/52/30 138/53/30 149/54/32 148/55/31 
f 154/56/36 153/57/32 141/58/30 140/59/30 
s 64
f 143/48/1 142/49/1 152/50/33 151/51/35 
f 155/52/1 114/53/1 119/54/33 156/55/35 
f 147/56/34 146/57/33 134/58/1 133/59/1 
s 2
f 157/60/1 126/2/2 125/8/17 158/61/30 
f 136/39/30 159/10/30 160/19/1 133/36/1 
s 4
f 161/60/36 128/2/20 127/8/10 162/61/35 
f 147/39/34 163/10/6 164/19/26 144/36/31 
s 16
f 158/62/30 125/1/17 128/2/20 161/63/36 
f 144/51/31 164/64/26 159/5/30 136/48/30 
s 64
f 162/65/35 127/8/10 126/6/2 157/66/1 
f 133/59/1 160/7/1 163/27/6 147/56/34 
f 137/67/1 165/4/1 166/3/6 150/68/34 
f 132/35/35 163/27/6 160/7/1 129/32/1 
s 2
f 129/69/1 160/19/1 159/10/30 167/70/30 
f 139/43/30 168/12/30 165/17/1 137/40/1 
s 4
f 169/69/36 164/19/26 163/10/6 132/70/35 
f 150/43/34 166/12/6 170/17/26 148/40/31 
s 16
f 167/71/30 159/5/30 164/64/26 169/72/36 
f 148/55/31 170/3/26 168/4/30 139/52/30 
s 2
f 155/73/1 165/17/1 168/12/30 171/74/30 
f 116/31/30 172/14/30 173/15/1 113/28/1 
s 4
f 174/73/36 170/17/26 166/12/6 156/74/35 
f 120/31/34 175/14/6 176/15/26 117/28/31 
s 16
f 171/67/30 168/4/30 170/3/26 174/68/36 
f 117/35/31 176/27/26 172/7/30 116/32/30 
s 64
f 113/71/1 173/5/1 175/64/6 120/72/34 
f 156/55/35 166/3/6 165/4/1 155/52/1 
s 2
f 177/75/30 122/6/12 121/1/11 178/76/1 
f 143/47/1 173/15/1 172/14/30 140/44/30 
s 4
f 179/75/34 124/6/14 123/1/13 180/76/31 
f 154/47/36 176/15/26 175/14/6 151/44/35 
s 16
f 180/65/31 123/8/13 122/6/12 177/66/30 
f 140/59/30 172/7/30 176/27/26 154/56/36 
s 64
f 178/62/1 121/1/11 124/2/14 179/63/34 
f 151/51/35 175/64/6 173/5/1 143/48/1 
s 2
f 141/45/30 177/75/30 178/76/1 142/46/1 
s 4
f 152/45/33 179/75/34 180/76/31 153/46/32 
s 16
f 153/57/32 180/65/31 177/66/30 141/58/30 
s 64
f 142/49/1 178/62/1 179/63/34 152/50/33 
s 2
f 114/29/1 155/73/1 171/74/30 115/30/30 
s 4
f 118/29/32 174/73/36 156/74/35 119/30/33 
s 16
f 115/33/30 171/67/30 174/68/36 118/34/32 
s 64
f 114/53/1 113/71/1 120/72/34 119/54/33 
f 130/33/1 137/67/1 150/68/34 131/34/33 
s 2
f 130/41/1 129/69/1 167/70/30 138/42/30 
s 4
f 149/41/32 169/69/36 132/70/35 131/42/33 
s 16
f 138/53/30 167/71/30 169/72/36 149/54/32 
s 2
f 134/37/1 157/60/1 158/61/30 135/38/30 
s 4
f 145/37/32 161/60/36 162/61/35 146/38/33 
s 16
f 135/49/30 158/62/30 161/63/36 145/50/32 
s 64
f 146/57/33 162/65/35 157/66/1 134/58/1 
# 166 polygons

