# 3ds Max Wavefront OBJ Exporter v0.99 - (c)2007 guruware
# File Created: 21.12.2023 11:52:10

mtllib univ_graduate.mtl

#
# object univ_graduate
#

v  -117.1053 0.0000 -8.8708
v  -113.0160 0.0000 -11.1995
v  -107.2773 0.0000 -1.1219
v  -111.3666 0.0000 1.2067
v  -111.3666 16.5283 1.2067
v  -107.2773 16.5283 -1.1219
v  -110.6034 20.3235 -5.9006
v  -113.6956 20.3235 -4.1398
v  -110.7244 0.0000 0.8410
v  -107.9196 0.0000 -0.7562
v  -107.9196 5.7227 -0.7562
v  -108.0511 6.0941 -0.6813
v  -108.2854 6.3682 -0.5479
v  -108.6030 6.5220 -0.3671
v  -110.0409 6.5220 0.4518
v  -110.3585 6.3682 0.6326
v  -110.5928 6.0941 0.7661
v  -110.7244 5.7227 0.8410
v  -100.4085 0.0000 -5.0335
v  -106.1471 0.0000 -15.1110
v  -106.1471 7.2731 -15.1110
v  -100.4085 7.2731 -5.0335
v  -117.1053 7.2731 -8.8708
v  -113.0160 7.2731 -11.1995
v  -124.0561 0.0000 -4.9127
v  -118.3174 0.0000 5.1648
v  -118.3174 7.2731 5.1649
v  -124.0561 7.2731 -4.9127
v  -113.0160 16.5283 -11.1995
v  -117.1053 16.5283 -8.8709
v  -118.3174 16.5283 5.1648
v  -118.5915 20.3235 -1.3518
v  -124.0561 16.5283 -4.9127
v  -106.1471 16.5283 -15.1110
v  -105.7075 20.3235 -8.6886
v  -100.4085 16.5283 -5.0335
v  -111.3666 7.2731 1.2067
v  -107.2773 7.2731 -1.1219
v  -106.8399 0.0000 -0.3538
v  -106.8399 7.2731 -0.3538
v  -107.4822 5.7227 0.0119
v  -107.4821 0.0000 0.0119
v  -110.9292 7.2731 1.9748
v  -109.6035 6.5220 1.2199
v  -108.1656 6.5220 0.4010
v  -110.9292 0.0000 1.9748
v  -110.2870 0.0000 1.6091
v  -110.2870 5.7227 1.6091
v  -107.8480 6.3682 0.2202
v  -107.6137 6.0941 0.0868
v  -110.1554 6.0941 1.5342
v  -109.9211 6.3682 1.4007
v  -97.1820 0.0000 0.6278
v  -97.8188 0.0000 -0.4904
v  -85.6504 0.0000 -7.4198
v  -85.0137 0.0000 -6.3016
v  -97.1732 17.1654 0.6227
v  -96.5736 17.1566 0.2813
v  -97.2104 17.1566 -0.8369
v  -97.8099 17.1654 -0.4955
v  -85.0137 15.4961 -6.3016
v  -91.0979 20.2907 -2.8369
v  -97.1820 15.4961 0.6278
v  -85.6504 15.4961 -7.4198
v  -91.0979 21.4718 -2.8369
v  -85.6221 17.1654 -5.9551
v  -86.2589 17.1654 -7.0733
v  -91.7346 21.4718 -3.9551
v  -103.2655 0.0000 -10.0552
v  -91.0971 0.0000 -16.9845
v  -91.7346 20.2907 -3.9551
v  -97.1813 20.2907 -13.5198
v  -103.2655 15.4961 -10.0552
v  -97.8188 15.4961 -0.4904
v  -91.0971 15.4961 -16.9845
v  -85.0093 17.1654 -6.3041
v  -85.6460 17.1654 -7.4223
v  -109.3489 0.0000 -20.7381
v  -97.1806 0.0000 -27.6674
v  -96.5438 0.0000 -26.5492
v  -108.7122 0.0000 -19.6199
v  -109.3400 17.1654 -20.7432
v  -108.7033 17.1654 -19.6250
v  -108.1037 17.1566 -19.9664
v  -108.7405 17.1566 -21.0846
v  -109.3489 15.4961 -20.7381
v  -103.2647 20.2907 -24.2028
v  -97.1806 15.4961 -27.6674
v  -96.5438 15.4961 -26.5492
v  -103.2647 21.4718 -24.2028
v  -102.6280 21.4718 -23.0846
v  -97.1522 17.1654 -26.2028
v  -97.7890 17.1654 -27.3210
v  -102.6280 20.2907 -23.0846
v  -108.7122 15.4961 -19.6199
v  -97.1762 17.1654 -27.6699
v  -96.5394 17.1654 -26.5517
v  -127.1904 0.0000 17.7161
v  -127.8272 0.0000 16.5979
v  -115.6588 0.0000 9.6686
v  -115.0220 0.0000 10.7868
v  -127.1815 17.1654 17.7111
v  -126.5820 17.1566 17.3697
v  -127.2188 17.1566 16.2515
v  -127.8183 17.1654 16.5929
v  -115.0220 15.4961 10.7868
v  -121.1062 20.2907 14.2515
v  -127.1904 15.4961 17.7161
v  -115.6588 15.4961 9.6686
v  -121.1062 21.4718 14.2515
v  -115.6305 17.1654 11.1333
v  -116.2672 17.1654 10.0151
v  -121.7430 21.4718 13.1333
v  -133.2738 0.0000 7.0332
v  -121.1055 0.0000 0.1039
v  -121.7430 20.2907 13.1333
v  -127.1897 20.2907 3.5685
v  -133.2738 15.4961 7.0332
v  -127.8272 15.4961 16.5979
v  -121.1055 15.4961 0.1039
v  -115.0177 17.1654 10.7843
v  -115.6544 17.1654 9.6661
v  -139.3573 0.0000 -3.6497
v  -127.1889 0.0000 -10.5791
v  -126.5522 0.0000 -9.4609
v  -138.7205 0.0000 -2.5315
v  -139.3484 17.1654 -3.6548
v  -138.7116 17.1654 -2.5366
v  -138.1121 17.1566 -2.8780
v  -138.7489 17.1566 -3.9962
v  -139.3573 15.4961 -3.6497
v  -133.2731 20.2907 -7.1144
v  -127.1889 15.4961 -10.5791
v  -126.5522 15.4961 -9.4609
v  -133.2731 21.4718 -7.1144
v  -132.6364 21.4718 -5.9962
v  -127.1606 17.1654 -9.1144
v  -127.7973 17.1654 -10.2326
v  -132.6364 20.2907 -5.9962
v  -138.7205 15.4961 -2.5315
v  -127.1845 17.1654 -10.5815
v  -126.5478 17.1654 -9.4634
v  -136.7039 15.9530 -0.2139
v  -135.1774 15.9530 2.4667
v  -135.1774 18.5778 2.4667
v  -136.7039 18.5778 -0.2139
v  -133.0835 15.9530 -2.2756
v  -133.0835 18.5778 -2.2756
v  -131.5570 18.5778 0.4050
v  -131.5570 15.9530 0.4050
v  -135.1774 18.7747 2.4667
v  -131.5570 18.7747 0.4050
v  -133.0835 18.7747 -2.2756
v  -136.7039 18.7747 -0.2139
v  -136.8832 18.5778 -0.1516
v  -135.3225 18.5778 2.5892
v  -135.3225 18.7747 2.5892
v  -136.8832 18.7747 -0.1516
v  -131.5399 18.5778 0.4351
v  -131.5399 18.7747 0.4351
v  -133.1006 18.5778 -2.3057
v  -133.1006 18.7747 -2.3057
v  -134.5243 15.9530 3.6136
v  -132.9978 15.9530 6.2942
v  -132.9978 18.5778 6.2942
v  -134.5243 18.5778 3.6136
v  -130.9039 15.9530 1.5519
v  -130.9039 18.5778 1.5519
v  -129.3774 18.5778 4.2325
v  -129.3774 15.9530 4.2325
v  -132.9978 18.7747 6.2942
v  -129.3774 18.7747 4.2325
v  -130.9039 18.7747 1.5519
v  -134.5243 18.7747 3.6136
v  -134.7037 18.5778 3.6758
v  -133.1429 18.5778 6.4166
v  -133.1429 18.7747 6.4166
v  -134.7037 18.7747 3.6758
v  -129.3603 18.5778 4.2626
v  -129.3603 18.7747 4.2626
v  -130.9210 18.5778 1.5218
v  -130.9210 18.7747 1.5218
v  -132.3448 15.9530 7.4410
v  -130.8183 15.9530 10.1216
v  -130.8183 18.5778 10.1216
v  -132.3448 18.5778 7.4410
v  -128.7243 15.9530 5.3794
v  -128.7243 18.5778 5.3794
v  -127.1978 18.5778 8.0600
v  -127.1978 15.9530 8.0600
v  -130.8183 18.7747 10.1216
v  -127.1978 18.7747 8.0600
v  -128.7243 18.7747 5.3794
v  -132.3448 18.7747 7.4410
v  -132.5241 18.5778 7.5033
v  -130.9633 18.5778 10.2441
v  -130.9633 18.7747 10.2441
v  -132.5241 18.7747 7.5033
v  -127.1807 18.5778 8.0901
v  -127.1807 18.7747 8.0901
v  -128.7415 18.5778 5.3493
v  -128.7415 18.7747 5.3493
v  -130.1652 15.9530 11.2685
v  -128.6387 15.9530 13.9491
v  -128.6387 18.5778 13.9491
v  -130.1652 18.5778 11.2685
v  -126.5448 15.9530 9.2068
v  -126.5448 18.5778 9.2068
v  -125.0183 18.5778 11.8875
v  -125.0183 15.9530 11.8875
v  -128.6387 18.7747 13.9491
v  -125.0183 18.7747 11.8875
v  -126.5448 18.7747 9.2068
v  -130.1652 18.7747 11.2685
v  -130.3445 18.5778 11.3308
v  -128.7838 18.5778 14.0716
v  -128.7838 18.7747 14.0716
v  -130.3445 18.7747 11.3308
v  -125.0011 18.5778 11.9175
v  -125.0011 18.7747 11.9175
v  -126.5619 18.5778 9.1768
v  -126.5619 18.7747 9.1768
# 222 vertices

vn -0.3499 -0.7071 -0.6145
vn 0.4112 -0.9045 0.1128
vn -0.1128 -0.9045 0.4112
vn 0.4353 0.4756 0.7644
vn 0.0000 1.0000 -0.0000
vn 0.7874 -0.5774 0.2160
vn -0.2160 -0.5774 0.7874
vn -0.3062 -0.1434 0.9411
vn -0.2119 -0.4102 0.8870
vn -0.0348 -0.6177 0.7856
vn 0.2007 -0.7319 0.6511
vn 0.4576 -0.7319 0.5049
vn 0.6934 -0.6177 0.3710
vn 0.8710 -0.4102 0.2704
vn 0.9656 -0.1434 0.2169
vn 0.2160 -0.5774 -0.7874
vn 0.2646 0.0000 -0.9644
vn 0.9644 0.0000 0.2646
vn -0.4948 -0.0000 -0.8690
vn -0.4948 0.0000 -0.8690
vn -0.7874 -0.5774 -0.2160
vn -0.2646 -0.0000 0.9644
vn -0.9644 -0.0000 -0.2646
vn -0.4353 0.4756 -0.7644
vn -0.2218 0.4170 0.8814
vn -0.2600 0.9542 0.1480
vn -0.8712 0.4170 -0.2590
vn 0.2204 0.4144 -0.8830
vn 0.2729 0.9494 -0.1554
vn 0.8718 0.4144 0.2610
vn 0.1856 0.3015 0.9352
vn 0.7096 0.3015 0.6368
vn 0.7874 0.5774 0.2160
vn -0.1884 -0.1265 0.9739
vn -0.2160 0.5774 0.7874
vn 0.4862 -0.6433 0.5914
vn 0.2605 -0.6433 0.7199
vn 0.9337 -0.1265 0.3349
vn 0.0528 -0.5436 0.8377
vn -0.1044 -0.3615 0.9265
vn 0.8501 -0.3615 0.3830
vn 0.6935 -0.5436 0.4728
vn -0.6145 -0.7071 0.3499
vn 0.6145 -0.7071 -0.3499
vn -0.2115 0.5830 0.7845
vn -0.5116 0.7314 -0.4510
vn 0.1268 0.7314 0.6701
vn -0.7826 0.5830 -0.2184
vn 0.9642 -0.0011 0.2651
vn 0.4948 0.0000 0.8690
vn -0.2654 0.0022 0.9641
vn 0.7522 0.2215 -0.6206
vn 0.2963 0.8005 0.5211
vn -0.1240 0.7291 -0.6731
vn 0.5156 0.7291 0.4501
vn -0.2969 0.8005 -0.5207
vn -0.4249 0.5126 -0.7462
vn -0.7687 0.4664 0.4377
vn -0.9165 0.2240 0.3316
vn 0.7687 0.4664 -0.4377
vn 0.7881 0.5766 0.2155
vn 0.2168 0.5766 -0.7877
vn -0.9646 0.0022 -0.2637
vn 0.2640 -0.0011 -0.9645
vn 0.9175 0.2215 -0.3303
vn 0.4249 0.5126 0.7461
vn -0.7528 0.2240 0.6190
vn 0.7522 0.2216 -0.6205
vn -0.4249 0.5126 -0.7461
vn -0.0001 1.0000 0.0000
vn -0.9165 0.2239 0.3316
vn 0.7687 0.4663 -0.4378
vn 0.9175 0.2216 -0.3303
vn 0.4249 0.5126 0.7462
vn -0.7528 0.2239 0.6190
vn -0.4112 -0.9045 -0.1128
vn 0.6368 -0.3015 -0.7096
vn 0.9352 -0.3015 -0.1856
vn -0.0000 1.0000 -0.0000
vn 0.6145 0.7071 -0.3499
vn 0.0000 1.0000 0.0000
vn -0.7874 0.5774 -0.2160
vn 0.2160 0.5774 -0.7874
# 83 vertex normals

vt 0.6200 1.0000 0.0000
vt 0.3800 1.0000 0.0000
vt 0.3800 0.0000 0.0000
vt 0.6200 0.0000 0.0000
vt 0.6200 0.5000 0.0000
vt 0.3800 0.5000 0.0000
vt 0.6200 0.4387 0.0000
vt 0.6087 0.4672 0.0000
vt 0.5887 0.4882 0.0000
vt 0.5615 0.5000 0.0000
vt 0.4385 0.5000 0.0000
vt 0.4113 0.4882 0.0000
vt 0.3913 0.4672 0.0000
vt 0.3800 0.4387 0.0000
vt 0.0000 0.0000 0.0000
vt 1.0000 0.0000 0.0000
vt 1.0000 0.5000 0.0000
vt 0.0000 0.5000 0.0000
vt 1.0000 1.0000 0.0000
vt 0.5000 1.0000 0.0000
vt 0.0000 1.0000 0.0000
vt 0.4165 0.5000 0.0000
vt 0.6200 0.4617 0.0000
vt 0.0500 0.0000 0.0000
vt 0.0500 0.5000 0.0000
vt 0.5000 0.0000 0.0000
vt 0.9500 0.0000 0.0000
vt 0.9500 0.5000 0.0000
vt 0.5000 0.5000 0.0000
vt 1.0000 0.7362 0.0000
vt 0.0000 0.7362 0.0000
vt 0.5000 0.7362 0.0000
vt 0.7362 0.0000 0.0000
vt 0.7362 1.0000 0.0000
vt 0.2638 0.0000 0.0000
vt 0.2638 1.0000 0.0000
# 36 texture coords

o univ_graduate
g univ_graduate
usemtl wire_115115115
s 2
f 1/1/1 2/2/1 3/3/2 4/4/3 
s 4
f 5/3/4 6/4/4 7/5/5 8/6/5 
s 8
f 9/3/6 10/4/7 11/7/8 12/8/9 13/9/10 14/10/11 15/11/12 16/12/13 17/13/14 18/14/15 
s 16
f 19/15/6 20/16/16 21/17/17 22/18/18 
s 32
f 2/3/1 1/4/1 23/5/19 24/6/20 
s 64
f 25/15/21 26/16/7 27/17/22 28/18/23 
s 4
f 29/1/24 30/2/24 8/6/5 7/5/5 
s 64
f 31/19/25 32/20/26 33/21/27 
s 16
f 34/19/28 35/20/29 36/21/30 
s 8
f 6/1/4 5/2/4 37/22/31 38/23/32 
s 16
f 21/17/17 34/19/28 36/21/30 22/18/18 
s 32
f 30/1/24 29/2/24 24/6/20 23/5/19 
s 64
f 27/17/22 31/19/25 33/21/27 28/18/23 
s 2
f 2/2/1 20/21/16 19/15/6 3/3/2 
f 4/4/3 26/16/7 25/19/21 1/1/1 
s 4
f 6/4/4 36/16/30 35/17/29 7/5/5 
f 8/6/5 32/18/26 31/15/25 5/3/4 
s 8
f 3/4/2 19/16/6 22/17/18 38/23/32 
f 37/22/31 27/18/22 26/15/7 4/3/3 
s 32
f 1/4/1 25/16/21 28/17/23 23/5/19 
f 24/6/20 21/18/17 20/15/16 2/3/1 
s 4
f 30/2/24 33/21/27 32/18/26 8/6/5 
f 7/5/5 35/17/29 34/19/28 29/1/24 
s 8
f 5/2/4 31/21/25 27/18/22 37/22/31 
f 38/23/32 22/17/18 36/19/30 6/1/4 
s 32
f 29/2/24 34/21/28 21/18/17 24/6/20 
f 23/5/19 28/17/23 33/19/27 30/1/24 
s off
f 39/4/6 40/23/33 41/7/34 42/4/7 
f 40/23/33 43/22/35 44/11/36 45/10/37 
f 43/22/35 46/3/7 47/3/6 48/14/38 
f 49/9/39 50/8/40 40/23/33 
f 51/13/41 52/12/42 43/22/35 
f 40/23/33 45/10/37 49/9/39 
f 40/23/33 50/8/40 41/7/34 
f 43/22/35 48/14/38 51/13/41 
f 43/22/35 52/12/42 44/11/36 
f 38/23/32 37/22/31 43/22/35 40/23/33 
f 37/22/31 4/3/3 46/3/7 43/22/35 
f 4/3/3 9/3/6 47/3/6 46/3/7 
f 9/3/6 18/14/15 48/14/38 47/3/6 
f 18/14/15 17/13/14 51/13/41 48/14/38 
f 17/13/14 16/12/13 52/12/42 51/13/41 
f 16/12/13 15/11/12 44/11/36 52/12/42 
f 15/11/12 14/10/11 45/10/37 44/11/36 
f 14/10/11 13/9/10 49/9/39 45/10/37 
f 13/9/10 12/8/9 50/8/40 49/9/39 
f 12/8/9 11/7/8 41/7/34 50/8/40 
f 11/7/8 10/4/7 42/4/7 41/7/34 
f 10/4/7 3/4/2 39/4/6 42/4/7 
f 3/4/2 38/23/32 40/23/33 39/4/6 
s 2
f 53/16/7 54/17/43 55/18/44 56/15/6 
s 4
f 57/15/45 58/24/46 59/25/47 60/18/48 
s 8
f 53/15/7 56/16/6 61/19/49 62/20/50 63/21/51 
s 16
f 56/15/6 55/26/44 64/20/52 61/21/49 
s 4
f 65/26/53 66/27/54 67/28/55 68/29/56 
s 2
f 54/17/43 69/30/43 70/31/44 55/18/44 
s 4
f 71/29/57 72/32/5 73/31/58 74/18/59 
s 16
f 55/26/44 70/33/44 75/34/60 64/20/52 
s 64
f 54/26/43 53/16/7 63/19/51 74/20/59 
s 4
f 64/17/52 75/30/60 72/32/5 71/29/57 
s off
f 63/15/51 62/26/50 65/26/53 58/24/46 57/15/45 
f 62/26/50 61/16/49 76/16/61 66/27/54 65/26/53 
f 61/16/49 64/17/52 77/17/62 76/16/61 
f 64/17/52 71/29/57 68/29/56 67/28/55 77/17/62 
f 71/29/57 74/18/59 60/18/48 59/25/47 68/29/56 
f 74/18/59 63/15/51 57/15/45 60/18/48 
s 4
f 66/27/54 76/16/61 77/17/62 67/28/55 
f 58/24/46 65/26/53 68/29/56 59/25/47 
s 64
f 69/35/43 54/26/43 74/20/59 73/36/58 
s 2
f 78/16/21 79/15/16 80/18/44 81/17/43 
s 4
f 82/15/48 83/18/45 84/25/46 85/24/47 
s 8
f 78/15/21 86/21/63 87/20/20 88/19/64 79/16/16 
s 16
f 79/15/16 88/21/64 89/20/65 80/26/44 
s 4
f 90/26/56 91/29/53 92/28/54 93/27/55 
s 2
f 81/17/43 80/18/44 70/31/44 69/30/43 
s 4
f 94/29/66 95/18/67 73/31/58 72/32/5 
s 16
f 80/26/44 89/20/65 75/34/60 70/33/44 
s 64
f 81/26/43 95/20/67 86/19/63 78/16/21 
s 4
f 89/17/65 94/29/66 72/32/5 75/30/60 
s off
f 86/15/63 82/15/48 85/24/47 90/26/56 87/26/20 
f 87/26/20 90/26/56 93/27/55 96/16/62 88/16/64 
f 88/16/64 96/16/62 97/17/61 89/17/65 
f 89/17/65 97/17/61 92/28/54 91/29/53 94/29/66 
f 94/29/66 91/29/53 84/25/46 83/18/45 95/18/67 
f 95/18/67 83/18/45 82/15/48 86/15/63 
s 4
f 93/27/55 92/28/54 97/17/61 96/16/62 
f 85/24/47 84/25/46 91/29/53 90/26/56 
s 64
f 69/35/43 73/36/58 95/20/67 81/26/43 
s 2
f 98/16/7 99/17/43 100/18/44 101/15/6 
s 4
f 102/15/45 103/24/46 104/25/47 105/18/48 
s 8
f 98/15/7 101/16/6 106/19/49 107/20/50 108/21/51 
s 16
f 101/15/6 100/26/44 109/20/68 106/21/49 
s 4
f 110/26/53 111/27/54 112/28/55 113/29/56 
s 2
f 99/17/43 114/30/43 115/31/44 100/18/44 
s 4
f 116/29/69 117/32/70 118/31/58 119/18/71 
s 16
f 100/26/44 115/33/44 120/34/72 109/20/68 
s 64
f 99/26/43 98/16/7 108/19/51 119/20/71 
s 4
f 109/17/68 120/30/72 117/32/70 116/29/69 
s off
f 108/15/51 107/26/50 110/26/53 103/24/46 102/15/45 
f 107/26/50 106/16/49 121/16/61 111/27/54 110/26/53 
f 106/16/49 109/17/68 122/17/62 121/16/61 
f 109/17/68 116/29/69 113/29/56 112/28/55 122/17/62 
f 116/29/69 119/18/71 105/18/48 104/25/47 113/29/56 
f 119/18/71 108/15/51 102/15/45 105/18/48 
s 4
f 111/27/54 121/16/61 122/17/62 112/28/55 
f 103/24/46 110/26/53 113/29/56 104/25/47 
s 64
f 114/35/43 99/26/43 119/20/71 118/36/58 
s 2
f 123/16/21 124/15/16 125/18/44 126/17/43 
s 4
f 127/15/48 128/18/45 129/25/46 130/24/47 
s 8
f 123/15/21 131/21/63 132/20/20 133/19/64 124/16/16 
s 16
f 124/15/16 133/21/64 134/20/73 125/26/44 
s 4
f 135/26/56 136/29/53 137/28/54 138/27/55 
s 2
f 126/17/43 125/18/44 115/31/44 114/30/43 
s 4
f 139/29/74 140/18/75 118/31/58 117/32/70 
s 16
f 125/26/44 134/20/73 120/34/72 115/33/44 
s 64
f 126/26/43 140/20/75 131/19/63 123/16/21 
s 4
f 134/17/73 139/29/74 117/32/70 120/30/72 
s off
f 131/15/63 127/15/48 130/24/47 135/26/56 132/26/20 
f 132/26/20 135/26/56 138/27/55 141/16/62 133/16/64 
f 133/16/64 141/16/62 142/17/61 134/17/73 
f 134/17/73 142/17/61 137/28/54 136/29/53 139/29/74 
f 139/29/74 136/29/53 129/25/46 128/18/45 140/18/75 
f 140/18/75 128/18/45 127/15/48 131/15/63 
s 4
f 138/27/55 137/28/54 142/17/61 141/16/62 
f 130/24/47 129/25/46 136/29/53 135/26/56 
s 64
f 114/35/43 118/36/58 140/20/75 126/26/43 
s 2
f 143/16/21 144/15/7 145/21/3 146/19/76 
s 4
f 147/15/16 148/21/77 149/19/78 150/16/6 
s 8
f 143/15/21 147/21/16 150/19/6 144/16/7 
s 16
f 144/15/7 150/21/6 149/19/78 145/16/3 
s 32
f 151/15/79 152/21/80 153/19/80 154/16/81 
s 64
f 146/15/76 148/21/77 147/19/16 143/16/21 
s off
f 155/16/21 156/15/7 157/15/35 158/16/82 
f 156/15/7 159/21/6 160/21/33 157/15/35 
f 149/21/78 148/19/77 153/19/80 152/21/80 
f 161/19/16 155/16/21 158/16/82 162/19/83 
f 146/16/76 145/15/3 156/15/7 155/16/21 
f 145/15/3 149/21/78 159/21/6 156/15/7 
f 149/21/78 152/21/80 160/21/33 159/21/6 
f 152/21/80 151/15/79 157/15/35 160/21/33 
f 151/15/79 154/16/81 158/16/82 157/15/35 
f 154/16/81 153/19/80 162/19/83 158/16/82 
f 153/19/80 148/19/77 161/19/16 162/19/83 
f 148/19/77 146/16/76 155/16/21 161/19/16 
s 2
f 163/16/21 164/15/7 165/21/3 166/19/76 
s 4
f 167/15/16 168/21/77 169/19/78 170/16/6 
s 8
f 163/15/21 167/21/16 170/19/6 164/16/7 
s 16
f 164/15/7 170/21/6 169/19/78 165/16/3 
s 32
f 171/15/79 172/21/80 173/19/80 174/16/81 
s 64
f 166/15/76 168/21/77 167/19/16 163/16/21 
s off
f 175/16/21 176/15/7 177/15/35 178/16/82 
f 176/15/7 179/21/6 180/21/33 177/15/35 
f 169/21/78 168/19/77 173/19/80 172/21/80 
f 181/19/16 175/16/21 178/16/82 182/19/83 
f 166/16/76 165/15/3 176/15/7 175/16/21 
f 165/15/3 169/21/78 179/21/6 176/15/7 
f 169/21/78 172/21/80 180/21/33 179/21/6 
f 172/21/80 171/15/79 177/15/35 180/21/33 
f 171/15/79 174/16/81 178/16/82 177/15/35 
f 174/16/81 173/19/80 182/19/83 178/16/82 
f 173/19/80 168/19/77 181/19/16 182/19/83 
f 168/19/77 166/16/76 175/16/21 181/19/16 
s 2
f 183/16/21 184/15/7 185/21/3 186/19/76 
s 4
f 187/15/16 188/21/77 189/19/78 190/16/6 
s 8
f 183/15/21 187/21/16 190/19/6 184/16/7 
s 16
f 184/15/7 190/21/6 189/19/78 185/16/3 
s 32
f 191/15/79 192/21/80 193/19/80 194/16/81 
s 64
f 186/15/76 188/21/77 187/19/16 183/16/21 
s off
f 195/16/21 196/15/7 197/15/35 198/16/82 
f 196/15/7 199/21/6 200/21/33 197/15/35 
f 189/21/78 188/19/77 193/19/80 192/21/80 
f 201/19/16 195/16/21 198/16/82 202/19/83 
f 186/16/76 185/15/3 196/15/7 195/16/21 
f 185/15/3 189/21/78 199/21/6 196/15/7 
f 189/21/78 192/21/80 200/21/33 199/21/6 
f 192/21/80 191/15/79 197/15/35 200/21/33 
f 191/15/79 194/16/81 198/16/82 197/15/35 
f 194/16/81 193/19/80 202/19/83 198/16/82 
f 193/19/80 188/19/77 201/19/16 202/19/83 
f 188/19/77 186/16/76 195/16/21 201/19/16 
s 2
f 203/16/21 204/15/7 205/21/3 206/19/76 
s 4
f 207/15/16 208/21/77 209/19/78 210/16/6 
s 8
f 203/15/21 207/21/16 210/19/6 204/16/7 
s 16
f 204/15/7 210/21/6 209/19/78 205/16/3 
s 32
f 211/15/79 212/21/80 213/19/80 214/16/81 
s 64
f 206/15/76 208/21/77 207/19/16 203/16/21 
s off
f 215/16/21 216/15/7 217/15/35 218/16/82 
f 216/15/7 219/21/6 220/21/33 217/15/35 
f 209/21/78 208/19/77 213/19/80 212/21/80 
f 221/19/16 215/16/21 218/16/82 222/19/83 
f 206/16/76 205/15/3 216/15/7 215/16/21 
f 205/15/3 209/21/78 219/21/6 216/15/7 
f 209/21/78 212/21/80 220/21/33 219/21/6 
f 212/21/80 211/15/79 217/15/35 220/21/33 
f 211/15/79 214/16/81 218/16/82 217/15/35 
f 214/16/81 213/19/80 222/19/83 218/16/82 
f 213/19/80 208/19/77 221/19/16 222/19/83 
f 208/19/77 206/16/76 215/16/21 221/19/16 
# 190 polygons - 8 triangles

